<svg width="122" height="122" viewBox="0 0 122 122" fill="none" xmlns="http://www.w3.org/2000/svg">
<path d="M61 122C94.6894 122 122 94.6894 122 61C122 27.3106 94.6894 0 61 0C27.3106 0 0 27.3106 0 61C0 94.6894 27.3106 122 61 122Z" fill="#1D5C58"/>
<path d="M70.5331 44.7027C69.1474 44.6223 67.7369 44.6718 66.3078 44.8636C54.3432 46.4659 45.9482 57.4654 47.5567 69.4299C48.0578 73.1604 49.4683 76.5382 51.5408 79.3777C50.0065 79.2911 48.5156 79.0313 47.0803 78.6415C44.9337 81.2337 41.1042 81.3821 41.1042 81.3821C42.5024 79.421 42.0384 77.6146 39.1431 74.6575C34.0393 70.0795 31.0142 64.7654 31.0142 57.5643C31.0142 45.4946 40.7949 35.7076 52.8709 35.7076C60.1337 35.7076 66.5614 39.2463 70.5331 44.6965V44.7027Z" stroke="white" stroke-width="2" stroke-linecap="round" stroke-linejoin="round"/>
<path d="M85.0963 81.6295C82.6155 84.9516 82.399 86.8014 84.0508 88.5583C84.0508 88.5583 80.2338 88.9233 77.7592 86.6405C75.996 87.3891 74.1154 87.915 72.1295 88.1872C63.8954 89.2945 56.119 85.6569 51.5472 79.3839C49.4748 76.5443 48.0643 73.1665 47.5632 69.4361C45.9547 57.4715 54.3497 46.472 66.3143 44.8697C67.7433 44.6779 69.1538 44.6284 70.5396 44.7089C80.7658 45.3151 89.4701 53.0853 90.8806 63.6208C91.8333 70.7538 89.5505 76.4267 85.0963 81.6419V81.6295Z" stroke="white" stroke-width="2" stroke-linecap="round" stroke-linejoin="round"/>
</svg>
