<svg width="122" height="122" viewBox="0 0 122 122" fill="none" xmlns="http://www.w3.org/2000/svg">
<path d="M61 122C94.6894 122 122 94.6894 122 61C122 27.3106 94.6894 0 61 0C27.3106 0 0 27.3106 0 61C0 94.6894 27.3106 122 61 122Z" fill="#1D5C58"/>
<path d="M60.6041 30.4576C70.5148 30.4576 78.5509 38.4938 78.5509 48.4045C78.5509 52.37 77.1405 55.3643 75.0866 59.0019C73.0327 62.6457 71.387 69.89 71.387 69.89H60.6041H49.8211C49.8211 69.89 48.3488 63.3448 46.1216 59.0019C43.8945 54.659 42.6572 52.37 42.6572 48.4045C42.6572 38.4938 50.6934 30.4576 60.6041 30.4576V30.4576Z" stroke="white" stroke-width="2" stroke-linecap="round" stroke-linejoin="round"/>
<path d="M60.6042 69.8899H70.156C71.7398 69.8899 73.0389 71.189 73.0389 72.7728C73.0389 73.5646 72.7172 74.2885 72.1914 74.8081C71.6717 75.3278 70.9479 75.6557 70.156 75.6557H60.6042H51.0523C50.2605 75.6557 49.5366 75.334 49.017 74.8081C48.4973 74.2885 48.1694 73.5646 48.1694 72.7728C48.1694 71.189 49.4686 69.8899 51.0523 69.8899H60.6042Z" stroke="white" stroke-width="2" stroke-linecap="round" stroke-linejoin="round"/>
<path d="M60.6042 75.6558H70.156C71.7398 75.6558 73.0389 76.9549 73.0389 78.5386C73.0389 79.3305 72.7172 80.0543 72.1914 80.574C71.6717 81.0936 70.9479 81.4215 70.156 81.4215H60.6042H51.0523C50.2605 81.4215 49.5366 81.0998 49.017 80.574C48.4973 80.0543 48.1694 79.3305 48.1694 78.5386C48.1694 76.9549 49.4686 75.6558 51.0523 75.6558H60.6042Z" stroke="white" stroke-width="2" stroke-linecap="round" stroke-linejoin="round"/>
<path d="M60.6042 81.4152H68.4919C69.9519 81.4152 71.1459 82.6091 71.1459 84.0691V84.5269C71.1459 85.9869 69.9519 87.1809 68.4919 87.1809H60.6042H52.7165C51.2565 87.1809 50.0625 85.9869 50.0625 84.5269V84.0691C50.0625 82.6091 51.2565 81.4152 52.7165 81.4152H60.6042Z" stroke="white" stroke-width="2" stroke-linecap="round" stroke-linejoin="round"/>
<path d="M60.6044 87.1812H64.6379C64.6379 89.4083 62.8315 91.2147 60.6044 91.2147C58.3772 91.2147 56.5708 89.4083 56.5708 87.1812H60.6044Z" stroke="white" stroke-width="2" stroke-linecap="round" stroke-linejoin="round"/>
</svg>
