<svg width="194" height="194" viewBox="0 0 194 194" fill="none" xmlns="http://www.w3.org/2000/svg">
<path d="M97 178C141.735 178 178 141.735 178 97C178 52.2649 141.735 16 97 16C52.2649 16 16 52.2649 16 97C16 141.735 52.2649 178 97 178Z" fill="#1D5C58"/>
<path d="M96.4741 56.4438C109.634 56.4438 120.305 67.1148 120.305 80.2748C120.305 85.5405 118.432 89.5165 115.705 94.3468C112.978 99.1853 110.792 108.805 110.792 108.805H96.4741H82.1558C82.1558 108.805 80.2007 100.114 77.2433 94.3468C74.286 88.58 72.6431 85.5405 72.6431 80.2748C72.6431 67.1148 83.3141 56.4438 96.4741 56.4438V56.4438Z" stroke="white" stroke-width="2" stroke-linecap="round" stroke-linejoin="round"/>
<path d="M96.4741 108.805H109.158C111.261 108.805 112.986 110.53 112.986 112.633C112.986 113.684 112.559 114.645 111.86 115.335C111.17 116.025 110.209 116.461 109.158 116.461H96.4741H83.7905C82.739 116.461 81.7779 116.034 81.0878 115.335C80.3978 114.645 79.9624 113.684 79.9624 112.633C79.9624 110.53 81.6875 108.805 83.7905 108.805H96.4741Z" stroke="white" stroke-width="2" stroke-linecap="round" stroke-linejoin="round"/>
<path d="M96.4741 116.461H109.158C111.261 116.461 112.986 118.186 112.986 120.289C112.986 121.34 112.559 122.302 111.86 122.992C111.17 123.682 110.209 124.117 109.158 124.117H96.4741H83.7905C82.739 124.117 81.7779 123.69 81.0878 122.992C80.3978 122.302 79.9624 121.34 79.9624 120.289C79.9624 118.186 81.6875 116.461 83.7905 116.461H96.4741Z" stroke="white" stroke-width="2" stroke-linecap="round" stroke-linejoin="round"/>
<path d="M96.474 124.109H106.948C108.887 124.109 110.472 125.694 110.472 127.633V128.241C110.472 130.179 108.887 131.765 106.948 131.765H96.474H86.0002C84.0615 131.765 82.4761 130.179 82.4761 128.241V127.633C82.4761 125.694 84.0615 124.109 86.0002 124.109H96.474Z" stroke="white" stroke-width="2" stroke-linecap="round" stroke-linejoin="round"/>
<path d="M96.4742 131.765H101.83C101.83 134.722 99.4315 137.121 96.4742 137.121C93.5169 137.121 91.1182 134.722 91.1182 131.765H96.4742Z" stroke="white" stroke-width="2" stroke-linecap="round" stroke-linejoin="round"/>
<path d="M97 193C150.019 193 193 150.019 193 97C193 43.9807 150.019 1 97 1C43.9807 1 1 43.9807 1 97C1 150.019 43.9807 193 97 193Z" stroke="#1D5C58" stroke-linecap="round" stroke-linejoin="round"/>
</svg>
