<svg width="770" height="340" viewBox="0 0 770 340" fill="none" xmlns="http://www.w3.org/2000/svg">
<path d="M30.6361 34.2477C30.6361 47.7 14.2723 56.3191 4.85866 45.9303C-2.50257 37.8041 -0.568519 26.4809 4.50342 17.7796C7.2203 13.1209 10.6345 8.9038 14.5717 5.30966C16.4925 3.55708 18.6601 1.53752 20.9593 0.336046C22.8308 -0.639507 26.0806 0.558541 25.0214 3.28667C24.7715 3.93704 24.2748 4.44364 23.7913 4.92971C21.7322 7.00746 19.6173 9.00307 17.8214 11.3273C17.0846 12.2823 16.3873 13.2681 15.8018 14.3327C15.6538 14.5997 14.348 17.8789 14.4401 17.8755C14.5914 17.872 14.7427 17.8686 14.8973 17.8686C23.5873 17.8686 30.6361 25.2007 30.6361 34.2477Z" fill="#1D5C58"/>
<path d="M65.8537 34.2477C65.8537 47.7 49.49 56.3191 40.0763 45.9303C32.7118 37.8041 34.6491 26.4809 39.721 17.7796C42.4379 13.1209 45.8521 8.9038 49.7893 5.30966C51.7102 3.55708 53.8777 1.53752 56.1769 0.336046C58.0484 -0.639507 61.2982 0.558541 60.239 3.28667C59.9891 3.93704 59.4924 4.44364 59.0089 4.92971C56.9498 7.00746 54.8349 9.00307 53.039 11.3273C52.3022 12.2823 51.6049 13.2681 51.0194 14.3327C50.8714 14.5997 49.5656 17.8789 49.6577 17.8755C49.809 17.872 49.9603 17.8686 50.1149 17.8686C58.805 17.8686 65.8537 25.2007 65.8537 34.2477V34.2477Z" fill="#1D5C58"/>
<path d="M739.217 306.65C739.217 293.724 755.581 285.441 764.995 295.424C772.356 303.233 770.422 314.113 765.35 322.474C762.633 326.951 759.219 331.003 755.282 334.457C753.361 336.141 751.193 338.082 748.894 339.236C747.023 340.174 743.773 339.022 744.832 336.401C745.082 335.776 745.579 335.289 746.062 334.822C748.121 332.826 750.236 330.908 752.032 328.675C752.769 327.757 753.466 326.81 754.052 325.787C754.2 325.53 755.506 322.379 755.413 322.382C755.262 322.386 755.111 322.389 754.956 322.389C746.266 322.389 739.217 315.343 739.217 306.65Z" fill="#1D5C58"/>
<path d="M704 306.65C704 293.724 720.364 285.441 729.777 295.424C737.142 303.233 735.204 314.113 730.132 322.474C727.416 326.951 724.001 331.003 720.064 334.457C718.143 336.141 715.976 338.082 713.677 339.236C711.805 340.174 708.555 339.022 709.614 336.401C709.864 335.776 710.361 335.289 710.845 334.822C712.904 332.826 715.019 330.908 716.815 328.675C717.551 327.757 718.249 326.81 718.834 325.787C718.982 325.53 720.288 322.379 720.196 322.382C720.045 322.386 719.893 322.389 719.739 322.389C711.049 322.389 704 315.343 704 306.65V306.65Z" fill="#1D5C58"/>
<rect x="33" y="33" width="693" height="274" rx="32" fill="white" stroke="#1D5C58"/>
</svg>
