<svg width="194" height="194" viewBox="0 0 194 194" fill="none" xmlns="http://www.w3.org/2000/svg">
<path d="M97 193C150.019 193 193 150.019 193 97C193 43.9807 150.019 1 97 1C43.9807 1 1 43.9807 1 97C1 150.019 43.9807 193 97 193Z" stroke="#1D5C58" stroke-linecap="round" stroke-linejoin="round"/>
<path d="M97 178C141.735 178 178 141.735 178 97C178 52.2649 141.735 16 97 16C52.2649 16 16 52.2649 16 97C16 141.735 52.2649 178 97 178Z" fill="#1D5C58"/>
<path d="M109.659 75.3594C107.819 75.2526 105.946 75.3183 104.048 75.5729C88.1607 77.7006 77.0132 92.3065 79.1491 108.194C79.8145 113.147 81.6874 117.633 84.4394 121.403C82.4021 121.288 80.4224 120.943 78.5165 120.426C75.666 123.868 70.581 124.065 70.581 124.065C72.4376 121.461 71.8215 119.062 67.977 115.135C61.1998 109.056 57.1827 102 57.1827 92.4379C57.1827 76.4109 70.1703 63.4151 86.2056 63.4151C95.8497 63.4151 104.385 68.1139 109.659 75.3511V75.3594Z" stroke="white" stroke-width="2" stroke-linecap="round" stroke-linejoin="round"/>
<path d="M128.997 124.393C125.702 128.805 125.415 131.261 127.608 133.594C127.608 133.594 122.54 134.079 119.254 131.047C116.913 132.041 114.415 132.74 111.778 133.101C100.844 134.571 90.5185 129.741 84.4478 121.411C81.6958 117.641 79.8229 113.155 79.1575 108.202C77.0216 92.3146 88.1691 77.7087 104.056 75.5811C105.954 75.3264 107.827 75.2607 109.667 75.3675C123.246 76.1725 134.804 86.4903 136.677 100.48C137.942 109.952 134.911 117.485 128.997 124.41V124.393Z" stroke="white" stroke-width="2" stroke-linecap="round" stroke-linejoin="round"/>
</svg>
