<svg width="21" height="23" viewBox="0 0 21 23" fill="none" xmlns="http://www.w3.org/2000/svg">
<path d="M15.853 1.28583C15.22 1.28583 14.7059 1.79581 14.7059 2.42366V3.21139H17V2.42366C17 1.79581 16.4859 1.28583 15.853 1.28583Z" fill="white"/>
<path d="M5.1474 1.28583C4.51447 1.28583 4.00036 1.79581 4.00036 2.42366V3.21139H6.29443V2.42366C6.29443 1.79581 5.78033 1.28583 5.1474 1.28583Z" fill="white"/>
<path fill-rule="evenodd" clip-rule="evenodd" d="M18.8391 2.33289L2.16103 2.33289C1.05904 2.33289 0.165703 3.21905 0.165703 4.3122V5.44714L20.8345 5.44714V4.3122C20.8345 3.21905 19.9411 2.33289 18.8391 2.33289ZM20.8345 6.44714V20.8564C20.8345 21.9496 19.9411 22.8357 18.8391 22.8357H2.16103C1.05904 22.8357 0.165703 21.9496 0.165703 20.8564V6.44714L20.8345 6.44714ZM14.1768 12.1243H15.6342C16.0733 12.1243 16.4292 12.4773 16.4292 12.9128V14.3586C16.4292 14.7941 16.0733 15.1471 15.6342 15.1471H14.1768C13.7378 15.1471 13.3819 14.7941 13.3819 14.3586V12.9128C13.3819 12.4773 13.7378 12.1243 14.1768 12.1243ZM11.262 12.1243H9.80459C9.36555 12.1243 9.00964 12.4773 9.00964 12.9128V14.3586C9.00964 14.7941 9.36555 15.1471 9.80459 15.1471H11.262C11.701 15.1471 12.057 14.7941 12.057 14.3586V12.9128C12.057 12.4773 11.701 12.1243 11.262 12.1243ZM14.1768 16.5271H15.6342C16.0733 16.5271 16.4292 16.8802 16.4292 17.3157V18.7614C16.4292 19.1969 16.0733 19.55 15.6342 19.55H14.1768C13.7378 19.55 13.3819 19.1969 13.3819 18.7614V17.3157C13.3819 16.8802 13.7378 16.5271 14.1768 16.5271ZM11.262 16.5271H9.80459C9.36555 16.5271 9.00964 16.8802 9.00964 17.3157L9.00964 18.7614C9.00964 19.1969 9.36555 19.55 9.80459 19.55H11.262C11.701 19.55 12.057 19.1969 12.057 18.7614L12.057 17.3157C12.057 16.8802 11.701 16.5271 11.262 16.5271ZM5.36611 12.1243H6.82352C7.26256 12.1243 7.61847 12.4773 7.61847 12.9128V14.3586C7.61847 14.7941 7.26256 15.1471 6.82352 15.1471H5.36611C4.92707 15.1471 4.57116 14.7941 4.57116 14.3586V12.9128C4.57116 12.4773 4.92707 12.1243 5.36611 12.1243ZM6.82352 16.5271H5.36611C4.92707 16.5271 4.57116 16.8802 4.57116 17.3157V18.7614C4.57116 19.1969 4.92707 19.55 5.36611 19.55H6.82352C7.26256 19.55 7.61847 19.1969 7.61847 18.7614L7.61847 17.3157C7.61847 16.8802 7.26256 16.5271 6.82352 16.5271Z" fill="white"/>
</svg>
