<svg width="21" height="23" viewBox="0 0 21 23" fill="none" xmlns="http://www.w3.org/2000/svg">
<path d="M21 8C21 3.58172 17.4183 0 13 0L0 0V23H13C17.4183 23 21 19.4183 21 15V8Z" fill="white"/>
<path d="M15.853 1.28564C15.22 1.28564 14.7059 1.79563 14.7059 2.42347V3.2112H17V2.42347C17 1.79563 16.4859 1.28564 15.853 1.28564Z" fill="#1D5C58"/>
<path d="M5.1474 1.28564C4.51447 1.28564 4.00036 1.79563 4.00036 2.42347V3.2112H6.29443V2.42347C6.29443 1.79563 5.78033 1.28564 5.1474 1.28564Z" fill="#1D5C58"/>
<path fill-rule="evenodd" clip-rule="evenodd" d="M18.8391 2.33301L2.16103 2.33301C1.05904 2.33301 0.165703 3.21918 0.165703 4.31232V5.44727L20.8345 5.44727V4.31232C20.8345 3.21918 19.9411 2.33301 18.8391 2.33301ZM20.8345 6.44727V20.8565C20.8345 21.9497 19.9411 22.8359 18.8391 22.8359H2.16103C1.05904 22.8359 0.165703 21.9497 0.165703 20.8565V6.44727L20.8345 6.44727ZM14.1768 12.1244H15.6342C16.0733 12.1244 16.4292 12.4774 16.4292 12.913V14.3587C16.4292 14.7942 16.0733 15.1472 15.6342 15.1472H14.1768C13.7378 15.1472 13.3819 14.7942 13.3819 14.3587V12.913C13.3819 12.4774 13.7378 12.1244 14.1768 12.1244ZM11.262 12.1244H9.80459C9.36555 12.1244 9.00964 12.4774 9.00964 12.913V14.3587C9.00964 14.7942 9.36555 15.1472 9.80459 15.1472H11.262C11.701 15.1472 12.057 14.7942 12.057 14.3587V12.913C12.057 12.4774 11.701 12.1244 11.262 12.1244ZM14.1768 16.5272H15.6342C16.0733 16.5272 16.4292 16.8803 16.4292 17.3158V18.7615C16.4292 19.197 16.0733 19.5501 15.6342 19.5501H14.1768C13.7378 19.5501 13.3819 19.197 13.3819 18.7615V17.3158C13.3819 16.8803 13.7378 16.5272 14.1768 16.5272ZM11.262 16.5272H9.80459C9.36555 16.5272 9.00964 16.8803 9.00964 17.3158L9.00964 18.7615C9.00964 19.197 9.36555 19.5501 9.80459 19.5501H11.262C11.701 19.5501 12.057 19.197 12.057 18.7615L12.057 17.3158C12.057 16.8803 11.701 16.5272 11.262 16.5272ZM5.36611 12.1244H6.82352C7.26256 12.1244 7.61847 12.4774 7.61847 12.913V14.3587C7.61847 14.7942 7.26256 15.1472 6.82352 15.1472H5.36611C4.92707 15.1472 4.57116 14.7942 4.57116 14.3587V12.913C4.57116 12.4774 4.92707 12.1244 5.36611 12.1244ZM6.82352 16.5272H5.36611C4.92707 16.5272 4.57116 16.8803 4.57116 17.3158V18.7615C4.57116 19.197 4.92707 19.5501 5.36611 19.5501H6.82352C7.26256 19.5501 7.61847 19.197 7.61847 18.7615L7.61847 17.3158C7.61847 16.8803 7.26256 16.5272 6.82352 16.5272Z" fill="#1D5C58"/>
</svg>
