<svg width="497" height="460" viewBox="0 0 497 460" fill="none" xmlns="http://www.w3.org/2000/svg">
<g clip-path="url(#clip0_72_2)">
<path d="M130.46 409.18C105.86 379.2 93.68 340.98 88.53 303.02C77.01 209.9 104.74 103.98 169.88 34.95C183.37 21.15 198.75 8.97 216.1 0.220001C217.12 -0.289999 218.36 0.120001 218.88 1.13C219.39 2.14 218.99 3.37 217.99 3.9C201.25 12.57 186.36 24.6 173.3 38.25C99.07 117.56 69.94 255.14 105.49 357.82C111.83 375.67 120.59 392.77 132.4 407.61C132.83 408.15 132.74 408.93 132.2 409.36C131.67 409.78 130.89 409.7 130.46 409.18Z" fill="#1D5C58" fill-opacity="0.6"/>
<path d="M345.43 28.74C381.85 72.69 392.59 136.58 389.89 192.27C385.53 275.76 351.78 368.89 283.91 421.19C276.21 426.97 268 432.09 259.35 436.28C258.93 436.48 258.42 436.31 258.22 435.89C258.02 435.48 258.19 434.99 258.59 434.77C275.35 425.8 290.3 413.71 303.25 399.87C370.82 326.33 398.21 211.42 380.17 114.09C374.1 83.96 363.22 54.21 344.18 29.75C343.9 29.4 343.96 28.89 344.32 28.61C344.66 28.34 345.16 28.4 345.44 28.73L345.43 28.74Z" fill="#1D5C58" fill-opacity="0.6"/>
<path d="M0.730177 328.84C99.9902 250.06 288.61 283.84 374.96 369.5C388.63 383.03 400.64 398.42 409.21 415.69C409.44 416.15 409.25 416.72 408.79 416.95C408.33 417.18 407.78 417 407.54 416.55C398.7 399.71 386.54 384.81 372.77 371.76C293.63 298.07 154.8 269.11 52.7802 305C43.8902 308.21 35.2102 312 26.8802 316.44C18.5502 320.88 10.6302 326.07 3.25018 331.93C2.39018 332.63 1.11018 332.49 0.420177 331.62C-0.259823 330.76 -0.119823 329.52 0.720177 328.83L0.730177 328.84Z" fill="#1D5C58" fill-opacity="0.6"/>
<path d="M473.17 113.75C369.87 187.29 184.29 152.94 99.3903 63.56C86.0703 49.44 74.6603 33.34 67.0703 15.38C66.5703 14.19 67.1203 12.82 68.3103 12.31C69.5003 11.8 70.8703 12.36 71.3803 13.55C75.1403 22.16 79.8103 30.38 85.1703 38.13C124.3 92.37 188.11 123.83 251.85 139.35C324.71 156.17 408.34 155.49 472.48 112.8C472.74 112.61 473.11 112.67 473.29 112.94C473.47 113.2 473.41 113.56 473.16 113.75H473.17Z" fill="#1D5C58" fill-opacity="0.6"/>
<path d="M282.42 15.97C256.25 146.39 225.39 292.39 196.49 422.23C196.36 422.82 195.78 423.19 195.19 423.06C194.61 422.93 194.24 422.36 194.36 421.78C216.38 309.58 243.86 177.87 267.87 65.95L278.95 15.24C279.16 14.28 280.11 13.68 281.06 13.89C282.01 14.1 282.61 15.03 282.42 15.97Z" fill="#1D5C58" fill-opacity="0.6"/>
<path d="M11.0404 169.23C156.97 198.68 320.34 233.3 465.66 265.6C466.14 265.71 466.45 266.19 466.34 266.67C466.23 267.15 465.77 267.45 465.29 267.36C339.73 242.68 192.32 212 67.0304 185.24L10.2604 172.9C9.2504 172.68 8.6104 171.68 8.8304 170.67C9.0504 169.67 10.0304 169.03 11.0304 169.23H11.0404Z" fill="#1D5C58" fill-opacity="0.6"/>
<path opacity="0.1" d="M267.4 459.2C386.197 459.2 482.5 362.896 482.5 244.1C482.5 125.304 386.197 29 267.4 29C148.604 29 52.3003 125.304 52.3003 244.1C52.3003 362.896 148.604 459.2 267.4 459.2Z" fill="#1D5C58"/>
<path d="M181.34 373.36C172.54 375.4 165.94 383.32 165.94 392.72V411.87H155.15V392.72C155.15 383.32 148.55 375.4 139.75 373.36C144.7 370.84 148.07 365.81 148.07 360.02C148.07 356.78 147.01 353.76 145.2 351.3C147.43 349.56 150.05 348.28 152.88 347.63C155.03 348.73 157.49 349.36 160.11 349.36C162.73 349.36 165.18 348.73 167.34 347.63C170.41 348.34 173.22 349.78 175.57 351.74C173.97 354.12 173.02 356.96 173.02 360.02C173.02 365.81 176.39 370.84 181.34 373.36V373.36Z" stroke="#1D5C58" stroke-width="3" stroke-linecap="round" stroke-linejoin="round"/>
<path d="M175.66 334.3C175.66 340.09 172.29 345.12 167.34 347.64C165.18 348.74 162.72 349.37 160.11 349.37C157.5 349.37 155.03 348.74 152.88 347.64C147.93 345.12 144.56 340.09 144.56 334.3C144.56 325.98 151.51 319.23 160.11 319.23C168.71 319.23 175.66 325.98 175.66 334.3V334.3Z" stroke="#1D5C58" stroke-width="3" stroke-linecap="round" stroke-linejoin="round"/>
<path d="M109.54 413.8C108.74 407.04 109.02 399.71 108.82 392.9C108.49 383.24 115.52 374.14 124.95 371.9C125.31 371.81 125.67 371.86 125.97 372.03C127.99 373.06 130.24 373.6 132.51 373.6C134.76 373.6 137.06 373.07 139.04 372.04C139.37 371.87 139.74 371.83 140.07 371.91C142.94 372.59 145.66 373.87 148.03 375.61C154.06 380.04 157.11 387.4 156.65 394.8V398.91L156.53 431.77C156.47 433.23 156.73 435.18 155.81 436.49C154.92 438.08 152.94 439.08 151.17 438.95L142.95 438.89C137.5 438.85 123.57 438.75 118.3 438.71L114.19 438.68C113.48 438.69 112.48 438.65 111.77 438.32C110.02 437.61 108.81 435.81 108.84 433.93C108.85 433.79 108.84 433.31 108.84 433.16C108.82 432.59 108.89 428.7 108.88 428.03C108.94 425.29 109.07 422.55 109.54 419.81C109.57 419.63 109.74 419.52 109.91 419.55C110.05 419.57 110.15 419.68 110.17 419.81C110.64 422.55 110.78 425.29 110.83 428.03C110.86 429.21 110.86 432.77 110.88 433.93C110.95 435.66 112.39 436.75 114.17 436.53L118.28 436.5C127.45 436.43 141.97 436.33 151.14 436.26C152.58 436.37 153.76 435.26 153.72 433.83V431.78L153.6 398.92C153.59 397.6 153.6 394.04 153.6 392.76C153.69 384.42 147.52 376.66 139.37 374.84L140.4 374.71C135.51 377.25 129.46 377.24 124.57 374.71L125.59 374.84C117.28 376.54 110.89 384.41 110.92 392.92C110.81 397.55 110.82 403.24 110.67 407.85C110.55 409.84 110.42 411.83 110.19 413.82C110.16 414.22 109.53 414.22 109.5 413.82L109.54 413.8Z" fill="#1D5C58"/>
<path d="M148.07 360.02C148.07 365.81 144.7 370.84 139.75 373.36C139.03 373.74 138.27 374.04 137.48 374.3C135.92 374.81 134.26 375.09 132.52 375.09C129.91 375.09 127.45 374.46 125.29 373.36C120.34 370.84 116.97 365.81 116.97 360.02C116.97 351.7 123.94 344.95 132.52 344.95C137.74 344.95 142.38 347.45 145.2 351.3C147.01 353.76 148.07 356.78 148.07 360.02V360.02Z" stroke="#1D5C58" stroke-width="3" stroke-linecap="round" stroke-linejoin="round"/>
<path d="M211.18 392.72V433.91C211.18 435.94 209.53 437.59 207.5 437.59H169.61C167.58 437.59 165.93 435.94 165.93 433.91V392.72C165.93 383.32 172.53 375.4 181.33 373.36C181.79 373.6 182.25 373.8 182.73 374C184.53 374.71 186.5 375.09 188.56 375.09C191.17 375.09 193.63 374.46 195.79 373.36C204.59 375.41 211.18 383.33 211.18 392.72V392.72Z" stroke="#1D5C58" stroke-width="3" stroke-linecap="round" stroke-linejoin="round"/>
<path d="M204.1 360.02C204.1 365.81 200.73 370.84 195.79 373.36C193.63 374.46 191.17 375.09 188.56 375.09C186.5 375.09 184.53 374.7 182.73 374C182.25 373.81 181.79 373.6 181.33 373.36C176.38 370.84 173.01 365.81 173.01 360.02C173.01 356.97 173.95 354.12 175.56 351.74C178.34 347.64 183.12 344.94 188.56 344.94C197.14 344.94 204.1 351.69 204.1 360.01V360.02Z" stroke="#1D5C58" stroke-width="3" stroke-linecap="round" stroke-linejoin="round"/>
<path d="M371.94 315.89C400.66 325.01 429.54 331.95 461.56 336.79C471.4 338.28 477.36 330.79 466.01 326.07" stroke="#1D5C58" stroke-width="5" stroke-miterlimit="10"/>
<path d="M282.16 276.37C291.29 275.17 302.89 275.85 312.11 275.73C312.37 275.73 312.94 275.73 313.22 275.75C316.35 275.92 317.87 280.04 315.6 282.26C315.31 282.55 314.76 282.96 314.43 283.21C314.29 283.33 303.73 291.33 303.14 291.78L302.65 287.44C325.68 297.03 348.97 305.98 372.71 313.52C374.03 313.94 374.75 315.34 374.34 316.66C373.92 317.98 372.52 318.7 371.2 318.29C347.28 310.69 323.85 301.69 300.74 292.06L296.57 290.32C299.81 287.96 308.59 282.08 312 279.79L312.65 279.35C312.73 279.3 312.72 279.3 312.71 279.31C312.71 279.31 312.71 279.31 312.71 279.33C312.69 279.33 312.71 279.36 312.68 279.38C312.64 279.6 312.7 279.55 312.82 279.62C312.82 279.62 312.93 279.62 312.78 279.6C309.03 279.34 298.6 278.63 294.71 278.37C290.5 278.07 286.32 277.64 282.17 276.78C281.97 276.75 281.97 276.42 282.18 276.4L282.16 276.37Z" fill="#1D5C58"/>
<path d="M474.57 330.93C476.65 341.34 475.08 352.45 461.78 351.16L455.57 350.66C450.84 350.37 444.84 349.54 440.1 349C389.64 342.28 342.46 322.13 295.94 302.56L299.39 300C299.86 303.93 300.28 307.87 300.71 311.8C300.78 312.99 301.19 314.86 301.03 316.15C300.62 319.71 295.77 321.23 293.4 318.55L293.14 318.27L292.63 317.73C282.22 306.84 268.57 291.99 258.24 280.81C255.79 278.68 256.49 274.62 259.82 273.84C260.31 273.71 260.97 273.75 261.1 273.77C263.33 273.94 265.54 274.19 267.76 274.51C271.7 275.11 275.64 275.51 279.58 276.19C279.74 276.22 279.84 276.36 279.81 276.52C279.79 276.65 279.68 276.74 279.56 276.76C273.61 277.22 267.66 277.68 261.7 277.84C261.26 277.84 260.47 277.85 260.76 277.86C260.95 277.83 261.02 277.76 261 277.56C261 277.51 260.96 277.46 260.96 277.44C260.91 277.39 261.02 277.51 261.11 277.6L261.37 277.86L277.96 294.85C284.33 301.4 290.64 308.07 296.97 314.66L297.22 314.92C297.2 314.88 297.16 314.87 297.12 314.83C296.65 314.47 295.93 314.77 295.86 315.37C295.85 315.46 295.87 315.67 295.84 315.29C295.2 309.05 294.65 302.57 294 296.33L297.88 297.95C343.15 316.93 388.85 336.63 437.76 343.59C441.39 344.2 446.27 344.67 449.91 345.13C453.66 345.59 458.36 345.83 462.11 346.18C463.86 346.33 465.45 346.35 467.05 345.72C471.76 343.42 470.26 336.19 469.66 331.81C469.15 328.55 473.92 327.7 474.58 330.93H474.57Z" fill="#1D5C58"/>
<path d="M90.6901 121.42C80.3101 114.82 71.4501 116.48 67.0501 125.18C64.2601 130.68 66.9101 136.53 68.0901 137.65C118.03 185.06 186.56 207.8 252.62 230.73L241.46 240.9C240.16 242.08 241.1 244.23 242.85 244.09L294.84 239.81C296.48 239.67 297.13 237.62 295.86 236.56L255.75 203.21C254.4 202.09 252.4 203.31 252.78 205.03L256.07 219.7C193.74 198.03 132.11 175.96 82.7301 133.75C80.7701 132.07 82.2301 130.1 84.1501 131.42" fill="#1D5C58"/>
<path d="M22.1701 167.47C18.7901 172.3 15.7001 176.85 15.7201 182.6C16.1401 194.68 28.3101 201.92 38.9801 204.51C48.3201 206.81 58.2701 206.4 67.4101 203.53C68.2801 203.39 69.1101 203.79 69.7601 204.33C74.3401 207.7 80.1901 208.8 85.8201 208.66H86.0201H86.1201C84.8001 208.67 84.3501 210.59 85.6301 211.16C84.6001 210.7 83.5401 210.13 82.5801 209.49C79.9201 207.71 77.7501 205.31 76.1501 202.58C75.9601 202.27 75.8301 201.91 75.7801 201.55C75.3701 198.96 78.3701 198.13 79.8301 196.61C89.9701 188.18 89.1901 175.79 79.0301 167.84C71.3701 161.84 61.4401 159.31 51.6501 159.19C42.7601 159.23 34.2401 161.19 25.9401 164.55C25.6401 164.71 25.3301 164.24 25.6001 164.02C39.1701 152.01 63.7401 153.36 78.6001 162.6C94.8201 172.71 95.6001 191.14 79.6601 201.94L79.3301 202.17C79.8401 201.82 80.0301 201.1 79.7501 200.53C80.7201 202.27 82.8601 204.76 84.8801 206.04C85.8701 206.79 87.3001 207.22 88.1001 207.89C90.0801 209.76 88.5401 213.02 85.8901 212.78H85.4401H84.5501C78.3801 212.67 72.0001 211.08 67.0601 207.2L67.0101 207.17L67.0701 207.21C67.3101 207.38 67.6301 207.45 67.9201 207.41C67.9801 207.41 68.0301 207.39 68.0901 207.38C68.1301 207.37 68.1301 207.37 68.1001 207.38L68.0501 207.4C50.6101 212.77 25.1801 209.2 15.1901 192.32C14.4301 191.09 13.8601 189.47 13.3701 188.11C13.1901 187.46 12.9301 186.05 12.7701 185.4C12.7401 184.83 12.6001 183.19 12.5801 182.63C12.6101 181.1 12.7701 179.53 13.1601 178.05C14.3101 173.24 17.5001 169.1 21.6601 166.89C22.0401 166.69 22.4201 167.15 22.1801 167.48L22.1701 167.47Z" fill="#1D5C58"/>
<path d="M409.91 419.83C412.56 418.73 416.1 416.47 418.77 411.88C418.95 411.57 418.85 411.16 418.55 410.96C411.71 406.38 407.47 400.04 407.47 393.03C407.47 379.07 424.27 367.75 444.99 367.75C465.71 367.75 482.51 379.07 482.51 393.03C482.51 406.99 465.71 418.31 444.99 418.31C439.31 418.31 433.92 417.46 429.09 415.93C428.88 415.86 428.65 415.9 428.47 416.04C424.68 419 418.89 421.43 410.16 421.15C409.42 421.13 409.24 420.11 409.92 419.82L409.91 419.83Z" fill="#1D5C58"/>
<path d="M465.17 157.91V207.54C465.17 209.29 463.73 210.73 461.97 210.73H420.66C421.28 209.51 421.63 208.12 421.63 206.66V154.72H461.97C463.73 154.72 465.17 156.16 465.17 157.91Z" fill="#1D5C58"/>
<path d="M416.63 123.92V206.66C416.63 208.9 414.8 210.73 412.56 210.73H356.38C354.15 210.73 352.32 208.9 352.32 206.66V123.92C352.32 121.68 354.15 119.86 356.38 119.86H412.56C414.8 119.86 416.63 121.68 416.63 123.92Z" fill="#1D5C58"/>
<path d="M447.62 80.77C441.51 87.29 437.97 94.7 440.59 103.59C440.93 104.71 441.38 105.81 441.9 106.89C442.5 108.15 441.96 109.66 440.7 110.26C435.54 112.01 431.4 116.49 430.29 121.85C427.08 136.98 445.19 147.23 456.51 136.66C458.45 134.82 459.91 132.47 460.71 129.92C461.12 128.6 462.53 127.87 463.84 128.28C473.95 132.25 485.57 125.12 486.68 114.34C487.05 110.95 486.45 107.46 484.83 104.43C484.14 103.16 484.71 101.54 486.04 100.97C493.77 97.52 492.24 86.02 483.84 84.77C481.33 84.39 478.69 85.2 476.82 86.93C475.78 87.81 474.17 87.58 473.42 86.44C469.42 80.36 461.77 76.96 454.41 77.99C453.51 78.12 453.24 76.79 454.11 76.54C462.24 74.13 471.57 76.9 477.33 83.31L473.73 82.99C479.63 77.58 489.91 79.06 494.01 85.95C498.46 92.67 495.48 102.43 488.05 105.54L489.26 102.08C498.55 119.91 481.16 139.84 462.24 132.99L465.49 131.39C463.42 138.15 457.68 143.62 450.81 145.31C440.32 148.15 428.8 141.66 425.81 131.2C422.5 120.86 428.55 109.05 438.84 105.62L437.44 109.12C431.79 99.14 435.52 83.56 446.82 79.47C447.57 79.22 448.17 80.2 447.63 80.76L447.62 80.77Z" fill="#1D5C58"/>
</g>
<defs>
<clipPath id="clip0_72_2">
<rect width="496.1" height="459.19" fill="white"/>
</clipPath>
</defs>
</svg>
