<svg width="122" height="122" viewBox="0 0 122 122" fill="none" xmlns="http://www.w3.org/2000/svg">
<path d="M61 122C94.6894 122 122 94.6894 122 61C122 27.3106 94.6894 0 61 0C27.3106 0 0 27.3106 0 61C0 94.6894 27.3106 122 61 122Z" fill="#1D5C58"/>
<path d="M82.6585 33.3877V90.1854H39.7617V33.3877H52.4996C51.9799 34.5631 51.6953 35.8685 51.6953 37.2357C51.6953 41.2074 54.1142 44.6161 57.56 46.0575C58.6984 46.5339 59.9481 46.7999 61.2596 46.7999C62.5711 46.7999 63.8208 46.5339 64.9591 46.0575C68.4049 44.6099 70.8238 41.2074 70.8238 37.2357C70.8238 35.8685 70.5392 34.5693 70.0195 33.3877H82.6585Z" stroke="white" stroke-width="2" stroke-linecap="round" stroke-linejoin="round"/>
<path d="M70.8297 37.2356C70.8297 41.2073 68.4108 44.616 64.9649 46.0575C63.8266 46.5338 62.577 46.7999 61.2655 46.7999C59.9539 46.7999 58.7042 46.5338 57.5659 46.0575C54.1201 44.6099 51.7012 41.2073 51.7012 37.2356C51.7012 35.8684 51.9858 34.5693 52.5054 33.3877C53.984 30.0222 57.3494 27.6714 61.2655 27.6714C65.1815 27.6714 68.5468 30.0222 70.0254 33.3877C70.5451 34.5631 70.8297 35.8684 70.8297 37.2356Z" stroke="white" stroke-width="2" stroke-linecap="round" stroke-linejoin="round"/>
<path d="M69.4505 58.6282L61.6617 56.067L54.1699 59.1231L57.5725 46.0574C58.7108 46.5337 59.9604 46.7997 61.2719 46.7997C62.5835 46.7997 63.8332 46.5337 64.9715 46.0574L69.4567 58.6282H69.4505Z" stroke="white" stroke-width="2" stroke-linecap="round" stroke-linejoin="round"/>
<path d="M49.6289 68.5886H73.8859" stroke="white" stroke-width="2" stroke-linecap="round" stroke-linejoin="round"/>
<path d="M54.0649 74.5089H69.4506" stroke="white" stroke-width="2" stroke-linecap="round" stroke-linejoin="round"/>
<path d="M49.6289 82.6936H73.8859" stroke="white" stroke-width="2" stroke-linecap="round" stroke-linejoin="round"/>
</svg>
