<svg width="121" height="119" viewBox="0 0 121 119" fill="none" xmlns="http://www.w3.org/2000/svg">
<path d="M61.0617 113.18C92.0393 113.18 117.152 88.0676 117.152 57.09C117.152 26.1123 92.0393 1 61.0617 1C30.084 1 4.97168 26.1123 4.97168 57.09C4.97168 88.0676 30.084 113.18 61.0617 113.18Z" stroke="#1D5C58" stroke-width="2" stroke-linecap="round" stroke-linejoin="round"/>
<path d="M16.8955 22.6369C16.8955 22.6369 57.9738 55.3239 57.0908 113.18" stroke="#1D5C58" stroke-width="2" stroke-linecap="round" stroke-linejoin="round"/>
<path d="M92.4216 11.1575C92.4216 11.1575 74.312 31.0331 83.1472 52.2309C91.9825 73.4287 114.946 71.6626 114.946 71.6626C43.8399 113.624 5.41553 62.8323 5.41553 62.8323C5.41553 62.8323 82.7082 73.8727 92.4216 11.1575Z" stroke="#1D5C58" stroke-width="2" stroke-linecap="round" stroke-linejoin="round"/>
<path d="M16.8947 27.0521C19.3331 27.0521 21.3099 25.0754 21.3099 22.6369C21.3099 20.1985 19.3331 18.2217 16.8947 18.2217C14.4562 18.2217 12.4795 20.1985 12.4795 22.6369C12.4795 25.0754 14.4562 27.0521 16.8947 27.0521Z" fill="white" stroke="#1D5C58" stroke-width="2" stroke-linecap="round" stroke-linejoin="round"/>
<path d="M5.41519 67.2474C7.85363 67.2474 9.83038 65.2706 9.83038 62.8322C9.83038 60.3937 7.85363 58.417 5.41519 58.417C2.97675 58.417 1 60.3937 1 62.8322C1 65.2706 2.97675 67.2474 5.41519 67.2474Z" fill="white" stroke="#1D5C58" stroke-width="2" stroke-linecap="round" stroke-linejoin="round"/>
<path d="M57.0905 117.595C59.5289 117.595 61.5057 115.618 61.5057 113.18C61.5057 110.742 59.5289 108.765 57.0905 108.765C54.652 108.765 52.6753 110.742 52.6753 113.18C52.6753 115.618 54.652 117.595 57.0905 117.595Z" fill="white" stroke="#1D5C58" stroke-width="2" stroke-linecap="round" stroke-linejoin="round"/>
<path d="M114.946 76.0778C117.385 76.0778 119.362 74.101 119.362 71.6626C119.362 69.2241 117.385 67.2474 114.946 67.2474C112.508 67.2474 110.531 69.2241 110.531 71.6626C110.531 74.101 112.508 76.0778 114.946 76.0778Z" fill="white" stroke="#1D5C58" stroke-width="2" stroke-linecap="round" stroke-linejoin="round"/>
<path d="M92.4218 15.5726C94.8602 15.5726 96.837 13.5959 96.837 11.1574C96.837 8.719 94.8602 6.74225 92.4218 6.74225C89.9833 6.74225 88.0066 8.719 88.0066 11.1574C88.0066 13.5959 89.9833 15.5726 92.4218 15.5726Z" fill="white" stroke="#1D5C58" stroke-width="2" stroke-linecap="round" stroke-linejoin="round"/>
<path d="M33.2968 78.0731L35.297 83.5567L29.7061 85.8155" stroke="#1D5C58" stroke-width="2" stroke-linecap="round" stroke-linejoin="round"/>
<path d="M30.6379 45.2933L32.0625 39.639L37.9559 40.9025" stroke="#1D5C58" stroke-width="2" stroke-linecap="round" stroke-linejoin="round"/>
<path d="M90.4357 56.4607L89.4161 62.2029L83.4446 61.3589" stroke="#1D5C58" stroke-width="2" stroke-linecap="round" stroke-linejoin="round"/>
<path d="M57.0559 52.6943L62.803 53.6798L61.9882 59.6562" stroke="#1D5C58" stroke-width="2" stroke-linecap="round" stroke-linejoin="round"/>
</svg>
