<svg width="194" height="194" viewBox="0 0 194 194" fill="none" xmlns="http://www.w3.org/2000/svg">
<path d="M97 178C141.735 178 178 141.735 178 97C178 52.2649 141.735 16 97 16C52.2649 16 16 52.2649 16 97C16 141.735 52.2649 178 97 178Z" fill="#1D5C58"/>
<path d="M97 193C150.019 193 193 150.019 193 97C193 43.9807 150.019 1 97 1C43.9807 1 1 43.9807 1 97C1 150.019 43.9807 193 97 193Z" stroke="#1D5C58" stroke-linecap="round" stroke-linejoin="round"/>
<path d="M125.961 62.5905V138.01H68.9999V62.5905H85.9141C85.224 64.1514 84.8461 65.8847 84.8461 67.7001C84.8461 72.974 88.0581 77.5004 92.6337 79.4144C94.1452 80.047 95.8047 80.4002 97.5462 80.4002C99.2878 80.4002 100.947 80.047 102.459 79.4144C107.034 77.4922 110.246 72.974 110.246 67.7001C110.246 65.8847 109.868 64.1596 109.178 62.5905H125.961Z" stroke="white" stroke-width="3" stroke-linecap="round" stroke-linejoin="round"/>
<path d="M110.254 67.7001C110.254 72.974 107.042 77.5003 102.467 79.4144C100.955 80.0469 99.2957 80.4002 97.5542 80.4002C95.8127 80.4002 94.1532 80.0469 92.6417 79.4144C88.066 77.4921 84.8541 72.974 84.8541 67.7001C84.8541 65.8846 85.232 64.1595 85.922 62.5905C87.8854 58.1217 92.3542 55.0001 97.5542 55.0001C102.754 55.0001 107.223 58.1217 109.186 62.5905C109.876 64.1513 110.254 65.8846 110.254 67.7001Z" stroke="white" stroke-width="3" stroke-linecap="round" stroke-linejoin="round"/>
<path d="M108.423 96.1067L98.0804 92.7058L88.1323 96.7639L92.6504 79.4143C94.1619 80.0468 95.8213 80.4 97.5628 80.4C99.3044 80.4 100.964 80.0468 102.475 79.4143L108.431 96.1067H108.423Z" stroke="white" stroke-width="3" stroke-linecap="round" stroke-linejoin="round"/>
<path d="M82.1023 109.333H114.312" stroke="white" stroke-width="3" stroke-linecap="round" stroke-linejoin="round"/>
<path d="M87.9925 117.194H108.423" stroke="white" stroke-width="3" stroke-linecap="round" stroke-linejoin="round"/>
<path d="M82.1023 128.062H114.312" stroke="white" stroke-width="3" stroke-linecap="round" stroke-linejoin="round"/>
</svg>
