<svg width="509" height="418" viewBox="0 0 509 418" fill="none" xmlns="http://www.w3.org/2000/svg">
<path d="M176.547 160.49H62.7746C59.107 160.49 56.1338 163.465 56.1338 167.136C56.1338 170.806 59.107 173.781 62.7746 173.781H176.547C180.214 173.781 183.187 170.806 183.187 167.136C183.187 163.465 180.214 160.49 176.547 160.49Z" fill="#1D5C58"/>
<path d="M201.668 182.762H87.8957C84.2281 182.762 81.2549 185.737 81.2549 189.407C81.2549 193.077 84.2281 196.053 87.8957 196.053H201.668C205.335 196.053 208.308 193.077 208.308 189.407C208.308 185.737 205.335 182.762 201.668 182.762Z" fill="#1D5C58" stroke="black" stroke-width="2" stroke-miterlimit="10"/>
<path d="M386.434 153.114L373.48 128.513C373.09 127.77 372.88 126.971 372.88 126.197C372.88 124.587 373.647 123.125 374.86 122.202C375.374 121.818 375.968 121.533 376.618 121.36L403.602 114.522C406.226 113.86 408.962 115.371 409.704 117.898C410.032 119.019 409.952 120.233 409.475 121.304C408.856 122.704 407.65 123.72 406.17 124.091L393.891 127.207C400.396 130.421 409.803 137.376 421.371 156.855C422.051 158 422.707 159.171 423.332 160.335C424.62 162.738 423.71 165.736 421.309 167.036C420.139 167.668 418.796 167.798 417.533 167.414C416.265 167.03 415.225 166.169 414.606 165.005C414.055 163.971 413.436 162.949 412.861 161.915C403.695 145.341 395.433 140.269 389.052 136.825L395.265 148.617C395.909 149.85 396.014 151.305 395.538 152.612C395.061 153.925 394.052 154.978 392.753 155.517C390.426 156.477 387.647 155.418 386.434 153.114Z" fill="#1D5C58"/>
<path d="M117.43 99.1195C117.9 98.9646 118.402 98.9956 118.847 99.2186C119.293 99.4415 119.621 99.8193 119.776 100.296C119.93 100.767 119.899 101.269 119.677 101.715C119.454 102.16 119.076 102.489 118.606 102.644C110.771 105.257 97.9842 110.484 90.6379 113.829L91.919 116.647C99.1973 113.333 111.848 108.162 119.584 105.585C120.84 105.164 121.855 104.285 122.449 103.102C123.043 101.919 123.136 100.575 122.722 99.3177C122.301 98.0604 121.422 97.0447 120.24 96.4501C119.058 95.8555 117.715 95.7626 116.458 96.1838C108.846 98.7231 96.9507 103.802 88.3604 107.71L89.6415 110.528C98.1637 106.651 109.941 101.622 117.442 99.1195H117.43Z" fill="black"/>
<path d="M400.279 297.123C394.486 302.109 387.993 306.847 380.988 311.213C379.867 311.913 379.081 313.009 378.778 314.297C378.481 315.586 378.698 316.917 379.397 318.038C380.307 319.5 381.879 320.373 383.605 320.373C384.528 320.373 385.431 320.113 386.217 319.624C393.65 314.997 400.551 309.95 406.727 304.636C407.73 303.775 408.337 302.573 408.436 301.254C408.535 299.935 408.114 298.653 407.254 297.65C405.471 295.581 402.339 295.346 400.272 297.123H400.279ZM404.716 302.288C398.657 307.503 391.886 312.452 384.583 316.998C384.286 317.184 383.952 317.276 383.605 317.276C382.956 317.276 382.368 316.948 382.027 316.397C381.767 315.976 381.681 315.48 381.792 314.997C381.903 314.514 382.201 314.105 382.621 313.839C389.763 309.392 396.379 304.555 402.296 299.47C402.649 299.167 403.076 299.024 403.503 299.024C404.023 299.024 404.543 299.241 404.914 299.669C405.236 300.046 405.397 300.523 405.36 301.019C405.323 301.514 405.094 301.966 404.716 302.288Z" fill="black"/>
<path d="M17.1252 190.497C17.5894 190.64 18.0783 190.708 18.561 190.708C20.7581 190.708 22.6581 189.296 23.2956 187.19C24.9481 181.733 27.2256 176.327 30.0663 171.106C30.6976 169.941 30.8462 168.603 30.4686 167.334C30.0973 166.064 29.2494 165.017 28.0921 164.386C26.9347 163.754 25.5917 163.612 24.323 163.983C23.0542 164.355 22.0083 165.203 21.3708 166.361C18.2021 172.171 15.6646 178.216 13.8141 184.316C13.4304 185.58 13.5603 186.924 14.1854 188.088C14.8105 189.252 15.8503 190.107 17.1128 190.491L17.1252 190.497ZM16.7848 185.214C18.5734 179.312 21.0304 173.471 24.094 167.842C24.3292 167.408 24.7253 167.092 25.2018 166.95C25.3751 166.9 25.5546 166.875 25.7279 166.875C26.0311 166.875 26.3344 166.95 26.6129 167.105C27.0461 167.34 27.3618 167.736 27.5041 168.213C27.6465 168.69 27.5908 169.192 27.3556 169.625C24.4096 175.026 22.0516 180.637 20.3373 186.292C20.0526 187.246 18.9819 187.822 18.0226 187.531C17.546 187.388 17.1561 187.066 16.921 186.626C16.6858 186.187 16.6363 185.685 16.7786 185.214H16.7848Z" fill="black"/>
<path d="M322.953 108.081C332.961 110.782 342.548 114.077 351.447 117.873C352.4 118.282 353.44 118.375 354.449 118.152C356.009 117.805 357.315 116.727 357.946 115.253C358.466 114.033 358.478 112.689 357.983 111.463C357.488 110.237 356.547 109.27 355.328 108.756C346.001 104.786 335.981 101.337 325.534 98.5187C322.898 97.8065 320.174 99.3734 319.463 102.012C318.751 104.65 320.317 107.375 322.953 108.088V108.081ZM322.452 102.817C322.638 102.123 323.195 101.628 323.851 101.485C324.135 101.423 324.432 101.423 324.73 101.504C335.034 104.285 344.924 107.685 354.115 111.599C354.573 111.791 354.926 112.157 355.111 112.615C355.297 113.073 355.291 113.581 355.099 114.039C354.715 114.944 353.576 115.408 352.667 115.024C343.631 111.178 333.908 107.834 323.764 105.096C322.774 104.83 322.186 103.808 322.452 102.817Z" fill="black"/>
<path d="M282.545 98.079C284.885 98.079 286.921 96.4129 287.391 94.1214C287.942 91.4458 286.209 88.8198 283.536 88.2686C275.459 86.6088 267.153 85.2214 258.848 84.1438C257.536 83.9704 256.236 84.3234 255.184 85.1347C254.138 85.9399 253.47 87.1104 253.296 88.4234C253.129 89.7364 253.476 91.0371 254.287 92.0837C255.091 93.1304 256.261 93.8055 257.573 93.9727C265.631 95.0194 273.695 96.3696 281.543 97.9799C281.871 98.048 282.211 98.079 282.539 98.079H282.545ZM256.744 90.1948C256.44 89.8046 256.31 89.3153 256.372 88.8198C256.434 88.3243 256.688 87.8908 257.078 87.5873C257.406 87.3334 257.796 87.2033 258.204 87.2033C258.285 87.2033 258.365 87.2033 258.452 87.2219C266.683 88.2872 274.914 89.6683 282.917 91.3096C283.919 91.5139 284.569 92.4987 284.359 93.502C284.155 94.4868 283.164 95.1495 282.168 94.9451C274.246 93.3162 266.108 91.9599 257.975 90.9008C257.486 90.8389 257.047 90.5849 256.744 90.1948Z" fill="black"/>
<path d="M44.2078 149.138C45.5446 149.138 46.7948 148.611 47.7355 147.663C54.3516 140.944 62.1125 134.62 70.8019 128.854C73.0794 127.343 73.7045 124.265 72.1944 121.986C71.4641 120.883 70.3501 120.128 69.0504 119.867C67.7569 119.607 66.4324 119.867 65.3308 120.592C56.0783 126.73 47.785 133.493 40.6863 140.702C38.7677 142.647 38.7925 145.793 40.7358 147.707C41.6703 148.63 42.902 149.131 44.214 149.131L44.2078 149.138ZM42.8834 142.876C49.8336 135.822 57.9597 129.195 67.0328 123.175C67.3422 122.97 67.695 122.865 68.0539 122.865C68.1777 122.865 68.3015 122.877 68.4253 122.902C68.9142 123.001 69.3289 123.286 69.6012 123.695C69.8735 124.11 69.9725 124.605 69.8735 125.088C69.7745 125.578 69.496 125.993 69.0813 126.265C60.2187 132.143 52.2906 138.609 45.5261 145.477C44.8329 146.183 43.6075 146.196 42.9019 145.496C42.1716 144.777 42.1655 143.601 42.8834 142.87V142.876Z" fill="black"/>
<path d="M439.027 245.823C436.403 245.067 433.655 246.585 432.9 249.211C430.301 258.235 426.037 267.029 420.219 275.359C418.653 277.601 419.204 280.692 421.438 282.259C422.274 282.841 423.252 283.151 424.273 283.151C425.888 283.151 427.411 282.358 428.333 281.033C434.776 271.811 439.51 262.025 442.413 251.954C443.168 249.328 441.652 246.579 439.027 245.823ZM439.442 251.1C436.632 260.848 432.046 270.324 425.795 279.261C425.232 280.066 424.025 280.289 423.208 279.72C422.367 279.131 422.163 277.973 422.75 277.131C428.76 268.522 433.179 259.418 435.871 250.065C436.106 249.254 436.849 248.721 437.654 248.721C437.821 248.721 437.994 248.746 438.167 248.796C439.151 249.081 439.721 250.109 439.436 251.094L439.442 251.1Z" fill="black"/>
<path d="M193.412 342.781C187.384 341.908 181.343 340.861 175.451 339.672C172.778 339.133 170.16 340.873 169.621 343.549C169.083 346.225 170.822 348.844 173.496 349.383C179.579 350.609 185.799 351.687 191.994 352.585C192.23 352.622 192.471 352.635 192.712 352.635C195.151 352.635 197.255 350.808 197.608 348.386C197.8 347.073 197.465 345.772 196.673 344.713C195.881 343.654 194.724 342.967 193.418 342.775L193.412 342.781ZM194.538 347.952C194.396 348.95 193.474 349.687 192.434 349.526C186.294 348.64 180.13 347.568 174.102 346.355C173.099 346.15 172.45 345.172 172.648 344.168C172.827 343.289 173.601 342.676 174.467 342.676C174.591 342.676 174.709 342.688 174.832 342.713C180.78 343.914 186.882 344.967 192.96 345.853C193.449 345.921 193.882 346.181 194.179 346.578C194.476 346.974 194.6 347.463 194.532 347.959L194.538 347.952Z" fill="black"/>
<path d="M230.824 90.1266C231.814 89.2224 232.39 87.9899 232.446 86.6521C232.501 85.3267 232.037 84.0633 231.14 83.0909C230.242 82.1185 229.023 81.5549 227.699 81.4992C222.989 81.3072 218.217 81.2143 213.526 81.2143C207.832 81.2143 202.076 81.3567 196.426 81.6416C193.697 81.7779 191.592 84.1066 191.728 86.8379C191.858 89.4763 194.031 91.5449 196.673 91.5449C196.76 91.5449 196.841 91.5449 196.921 91.5449C202.404 91.2724 207.993 91.13 213.526 91.13C218.081 91.13 222.717 91.2229 227.284 91.4087C228.596 91.4706 229.853 91.0247 230.83 90.1328L230.824 90.1266ZM196.76 88.442H196.667C195.677 88.442 194.866 87.6678 194.817 86.6769C194.767 85.655 195.553 84.7817 196.581 84.726C202.182 84.4473 207.882 84.3048 213.526 84.3048C218.18 84.3048 222.902 84.4039 227.575 84.5897C228.07 84.6083 228.528 84.8189 228.862 85.1843C229.196 85.5497 229.37 86.0204 229.351 86.522C229.333 87.0237 229.116 87.4882 228.738 87.8289C228.38 88.1571 227.922 88.3243 227.42 88.2996C222.797 88.1138 218.118 88.0147 213.52 88.0147C207.931 88.0147 202.293 88.1571 196.754 88.4296L196.76 88.442Z" fill="black"/>
<path d="M46.8135 271.848C45.2044 269.643 42.1037 269.154 39.8943 270.764C38.8236 271.544 38.1242 272.69 37.92 274.003C37.7157 275.316 38.0314 276.623 38.8112 277.688C42.4565 282.692 46.6093 287.622 51.1644 292.348C52.0989 293.314 53.3924 293.859 54.7292 293.859C54.7664 293.859 54.8097 293.859 54.8468 293.859C56.0908 293.828 57.2667 293.333 58.1641 292.472C60.126 290.577 60.1817 287.43 58.2879 285.467C54.0423 281.07 50.1803 276.487 46.8073 271.854L46.8135 271.848ZM56.0227 290.236C55.6885 290.558 55.2429 290.744 54.7788 290.756C54.2589 290.744 53.7638 290.564 53.3986 290.186C48.9425 285.566 44.8764 280.741 41.3177 275.855C41.0268 275.452 40.9093 274.963 40.9835 274.474C41.0578 273.984 41.3239 273.551 41.7262 273.26C42.0542 273.018 42.4379 272.907 42.8155 272.907C43.391 272.907 43.9542 273.173 44.3194 273.669C47.7728 278.413 51.7276 283.107 56.0722 287.61C56.784 288.347 56.7654 289.524 56.0289 290.236H56.0227Z" fill="black"/>
<path d="M248.042 346.255H247.961C239.941 346.392 231.765 346.231 223.651 345.785C220.934 345.661 218.589 347.742 218.44 350.461C218.292 353.192 220.39 355.527 223.113 355.682C229.543 356.035 236.023 356.214 242.373 356.214C244.273 356.214 246.21 356.196 248.122 356.165C249.447 356.14 250.678 355.608 251.601 354.654C252.523 353.7 253.012 352.449 252.993 351.123C252.95 348.436 250.728 346.249 248.042 346.249V346.255ZM249.379 352.498C249.032 352.858 248.568 353.056 248.073 353.062C246.173 353.093 244.254 353.112 242.373 353.112C236.079 353.112 229.654 352.932 223.28 352.585C222.259 352.529 221.473 351.65 221.528 350.628C221.584 349.643 222.407 348.869 223.385 348.869C223.416 348.869 223.447 348.869 223.484 348.869C231.666 349.315 239.916 349.476 248.042 349.34C249.051 349.34 249.88 350.157 249.899 351.167C249.905 351.662 249.719 352.133 249.379 352.486V352.498Z" fill="black"/>
<path d="M311.925 340.18C310.817 339.461 309.492 339.22 308.199 339.498C298.507 341.586 288.438 343.214 278.263 344.342C275.552 344.645 273.584 347.098 273.887 349.81C274.166 352.325 276.276 354.22 278.801 354.22C278.981 354.22 279.166 354.208 279.352 354.189C289.855 353.025 300.265 351.34 310.278 349.185C312.946 348.609 314.654 345.971 314.078 343.301C313.8 342.007 313.033 340.898 311.925 340.18ZM309.629 346.156C299.714 348.293 289.409 349.959 279.012 351.111C277.991 351.229 277.075 350.479 276.957 349.47C276.846 348.454 277.582 347.531 278.597 347.42C288.877 346.28 299.052 344.633 308.843 342.527C308.973 342.496 309.109 342.484 309.239 342.484C309.591 342.484 309.938 342.583 310.241 342.781C310.656 343.047 310.947 343.468 311.046 343.951C311.263 344.955 310.625 345.946 309.622 346.156H309.629Z" fill="black"/>
<path d="M354.3 325.031C348.866 327.353 343.173 329.527 337.373 331.49C336.123 331.911 335.108 332.803 334.52 333.986C333.932 335.175 333.846 336.513 334.267 337.77C334.947 339.783 336.835 341.14 338.958 341.14C339.496 341.14 340.029 341.053 340.548 340.88C346.595 338.83 352.53 336.569 358.193 334.147C360.706 333.076 361.876 330.159 360.799 327.644C359.728 325.136 356.813 323.965 354.3 325.037V325.031ZM356.974 331.298C351.385 333.689 345.524 335.925 339.558 337.95C338.587 338.278 337.522 337.733 337.206 336.786C337.045 336.315 337.083 335.813 337.299 335.367C337.522 334.921 337.9 334.587 338.37 334.432C344.243 332.444 350.011 330.239 355.52 327.886C355.755 327.787 356.002 327.737 356.25 327.737C356.974 327.737 357.661 328.158 357.958 328.864C358.36 329.806 357.921 330.902 356.98 331.305L356.974 331.298Z" fill="black"/>
<path d="M90.5451 308.358C83.4277 304.208 76.6756 299.737 70.4618 295.067C69.4035 294.274 68.1038 293.94 66.7918 294.119C65.4797 294.305 64.3224 294.993 63.5302 296.045C62.738 297.104 62.3976 298.405 62.5833 299.718C62.7689 301.031 63.4559 302.189 64.508 302.982C71.025 307.887 78.1052 312.569 85.5567 316.917C86.3118 317.357 87.1721 317.592 88.0447 317.592C89.8024 317.592 91.4424 316.651 92.3275 315.134C92.9959 313.988 93.1754 312.656 92.835 311.374C92.4946 310.092 91.6838 309.021 90.5389 308.358H90.5451ZM89.66 313.573C89.3258 314.143 88.7131 314.496 88.0509 314.496C87.7229 314.496 87.4011 314.409 87.1226 314.242C79.7762 309.962 72.7951 305.342 66.3771 300.511C65.981 300.214 65.7273 299.78 65.653 299.285C65.5849 298.795 65.7087 298.306 66.0058 297.91C66.3028 297.513 66.7361 297.259 67.2312 297.185C67.3178 297.173 67.4107 297.166 67.4973 297.166C67.8996 297.166 68.2833 297.296 68.6113 297.538C74.9179 302.282 81.7753 306.822 88.9916 311.027C89.4187 311.275 89.7281 311.678 89.8519 312.161C89.9757 312.644 89.9076 313.139 89.66 313.573Z" fill="black"/>
<path d="M146.029 332.252C136.207 329.248 126.633 325.761 117.56 321.884C116.34 321.364 114.997 321.352 113.772 321.841C112.546 322.336 111.581 323.278 111.061 324.492C109.99 327.006 111.16 329.923 113.667 330.995C123.068 335.014 132.983 338.625 143.132 341.728C143.603 341.871 144.092 341.945 144.581 341.945C146.772 341.945 148.672 340.533 149.315 338.433C149.699 337.17 149.575 335.826 148.95 334.661C148.325 333.497 147.291 332.636 146.023 332.252H146.029ZM146.357 337.535C146.066 338.483 145.008 339.065 144.036 338.768C133.991 335.696 124.182 332.122 114.88 328.146C114.422 327.954 114.069 327.589 113.883 327.13C113.698 326.672 113.704 326.164 113.902 325.706C114.1 325.247 114.459 324.894 114.917 324.709C115.14 324.616 115.375 324.572 115.61 324.572C115.858 324.572 116.105 324.622 116.34 324.721C125.512 328.641 135.192 332.172 145.119 335.2C145.596 335.343 145.986 335.665 146.215 336.104C146.444 336.544 146.493 337.046 146.351 337.523L146.357 337.535Z" fill="black"/>
<path d="M38.1366 231.039L36.7132 258.811C36.6698 259.653 36.4408 260.446 36.0447 261.108C35.2216 262.489 33.8167 263.357 32.3004 263.53C31.663 263.598 31.0069 263.542 30.3571 263.357L3.67021 255.435C1.07703 254.667 -0.507351 251.967 0.148681 249.415C0.439563 248.282 1.12654 247.278 2.08583 246.603C3.32981 245.718 4.88944 245.464 6.35004 245.897L18.499 249.496C14.5504 243.408 10.0139 232.619 10.0139 209.963C10.0139 208.632 10.0449 207.288 10.1067 205.968C10.2305 203.243 12.539 201.131 15.2684 201.243C16.599 201.298 17.8182 201.874 18.7094 202.847C19.6006 203.825 20.0586 205.095 19.9967 206.414C19.941 207.585 19.9534 208.78 19.9163 209.963C19.3345 228.896 23.8463 237.48 27.572 243.705L28.2528 230.389C28.3271 229.002 28.9831 227.695 30.06 226.815C31.1369 225.93 32.548 225.54 33.9343 225.744C36.4223 226.109 38.2728 228.438 38.1366 231.039Z" fill="#1D5C58"/>
<path d="M430.976 195.817C429.299 190.683 427.269 184.836 425.115 179.2C424.744 178.234 425.251 177.157 426.186 176.797C427.139 176.432 428.216 176.909 428.581 177.869C430.765 183.579 432.814 189.5 434.417 195.155L437.369 194.232C435.747 188.515 433.674 182.532 431.465 176.766C430.994 175.528 430.066 174.549 428.859 174.01C427.652 173.471 426.309 173.434 425.072 173.905C422.899 174.735 421.587 177.008 421.946 179.306C422.002 179.64 422.088 179.975 422.212 180.303C424.347 185.883 426.353 191.668 428.011 196.74L430.963 195.817H430.976Z" fill="black"/>
<path d="M63.3629 145.372C76.666 145.372 87.4504 134.58 87.4504 121.267C87.4504 107.954 76.666 97.1624 63.3629 97.1624C50.0597 97.1624 39.2754 107.954 39.2754 121.267C39.2754 134.58 50.0597 145.372 63.3629 145.372Z" fill="#1D5C58"/>
<path d="M67.1876 143.471C80.4908 143.471 91.2751 132.678 91.2751 119.366C91.2751 106.053 80.4908 95.261 67.1876 95.261C53.8844 95.261 43.1001 106.053 43.1001 119.366C43.1001 132.678 53.8844 143.471 67.1876 143.471Z" stroke="black" stroke-width="2" stroke-miterlimit="10" stroke-linecap="round"/>
<path d="M57.2422 121.23L64.8794 129.071L77.1274 109.661" stroke="white" stroke-width="2" stroke-linecap="round" stroke-linejoin="round"/>
<path d="M478.655 260.681C479.794 260.464 480.964 260.297 482.183 260.186C499.333 258.668 507.459 262.657 507.459 262.657C507.459 262.657 487.029 269.123 482.765 287.591C482.765 287.591 479.348 303.211 464.804 299.266C458.987 297.687 456.338 293.525 455.249 289.103C453.262 281.002 456.641 272.566 463.325 267.58" fill="white"/>
<path d="M478.655 260.681C479.794 260.464 480.964 260.297 482.183 260.186C499.333 258.668 507.459 262.657 507.459 262.657C507.459 262.657 487.029 269.123 482.765 287.591C482.765 287.591 479.348 303.211 464.804 299.266C458.987 297.687 456.338 293.525 455.249 289.103C453.262 281.002 456.641 272.566 463.325 267.58" stroke="black" stroke-width="2" stroke-linecap="round" stroke-linejoin="round"/>
<path d="M481.799 272.04C481.799 272.04 470.541 274.505 467.051 284.043L481.799 272.04Z" fill="white"/>
<path d="M481.799 272.04C481.799 272.04 470.541 274.505 467.051 284.043" stroke="black" stroke-width="2" stroke-linecap="round" stroke-linejoin="round"/>
<path d="M364.271 279.546C362.247 263.035 364.518 235.523 395.018 215.655C396.986 214.373 399.523 216.064 399.09 218.38C398.322 222.542 397.957 228.116 399.95 232.848C403.633 241.574 409.419 239.778 409.945 232.934C409.958 232.749 409.952 232.569 409.927 232.389C409.593 229.794 407.018 209.034 409.964 205.535C412.588 202.413 425.09 197.787 431.192 197.149C432.69 196.994 434.008 198.115 434.107 199.614C434.336 202.995 434.615 209.313 433.921 213.592C432.937 219.687 439.813 222.437 441.187 214.769C442.369 208.192 444.412 201.912 443.112 197.651C442.747 196.443 443.18 195.142 444.263 194.498C448.565 191.94 458.424 185.635 463.678 178.742C465.027 176.971 467.849 177.584 468.357 179.758C469.459 184.452 471.247 190.516 473.908 195.309C474.49 196.362 474.329 197.669 473.469 198.511C470.69 201.243 465.046 207.133 465.343 209.653C465.671 212.44 473.803 213.314 478.42 212.725C479.782 212.552 481.057 213.413 481.379 214.751C483.235 222.598 486.726 247.873 465.906 280.711C465.881 280.748 465.863 280.785 465.838 280.822C464.934 282.451 443.539 319.989 401.12 315.195C391.96 314.161 384.125 309.553 378.332 304.871C370.54 298.579 365.478 289.493 364.258 279.546H364.271Z" fill="#1D5C58"/>
<path d="M368.269 278.512C365.682 261.387 367.062 229.943 404.456 209.108C404.456 209.108 399.938 220.901 403.67 229.745C407.402 238.589 413.294 236.626 413.684 229.547C413.684 229.547 410.54 206.16 413.684 202.426C416.828 198.691 434.107 192.795 437.647 194.17C437.647 194.17 438.631 204.389 437.647 210.483C436.663 216.578 443.539 219.328 444.913 211.66C446.287 203.993 448.843 196.722 445.897 192.597C445.897 192.597 468.289 180.408 470.647 169.21C470.647 169.21 472.807 184.935 478.699 193.978C478.699 193.978 468.685 203.218 469.075 206.557C469.465 209.895 481.057 210.49 484.393 209.115C484.393 209.115 494.883 237.84 469.595 277.676C469.595 277.676 448.2 317.004 404.846 312.105C394.671 310.953 386.13 305.391 380.208 300.226C373.79 294.627 369.544 286.941 368.269 278.518V278.512Z" stroke="black" stroke-width="2" stroke-linecap="round" stroke-linejoin="round"/>
<path d="M466.803 190.175C466.803 190.175 454.246 251.843 394.25 273.947" stroke="black" stroke-width="2" stroke-linecap="round" stroke-linejoin="round"/>
<path d="M419.303 260.966C418.573 247.885 420.832 232.792 428.054 215.723" stroke="black" stroke-width="2" stroke-linecap="round" stroke-linejoin="round"/>
<path d="M476.267 238.769C478.872 237.196 478.643 233.325 475.963 231.888C474.478 231.095 472.262 230.835 468.889 231.039C462.057 231.454 458.678 231.677 456.765 235.245C454.735 239.029 459.952 242.683 465.058 240.317C468.629 238.663 471.315 238.837 472.603 239.091C473.581 239.283 474.589 239.326 475.555 239.085C475.771 239.029 476.013 238.924 476.267 238.769Z" stroke="black" stroke-width="2" stroke-linecap="round" stroke-linejoin="round"/>
<path d="M251.037 1.54836L256.341 12.0462" stroke="black" stroke-width="2" stroke-linecap="round" stroke-linejoin="round"/>
<path d="M245.096 10.7394L252.572 15.8366" stroke="black" stroke-width="2" stroke-linecap="round" stroke-linejoin="round"/>
<path d="M283.591 79.5421L272.234 77.9937L274.766 42.4187C274.766 42.4187 279.667 46.0852 282.496 46.4754C285.324 46.8656 291.03 44.636 291.03 44.636L283.585 79.5421H283.591Z" stroke="black" stroke-width="2" stroke-linejoin="round"/>
<path d="M293.685 74.2715L292.924 79.8765C292.021 86.5159 286.419 91.2291 280.416 90.4115L272.463 89.3277C266.46 88.5101 262.326 82.4654 263.229 75.826L263.991 70.221C263.991 70.221 272.29 72.6488 278.665 73.5159C285.046 74.383 293.685 74.2653 293.685 74.2653V74.2715Z" fill="black"/>
<path d="M312.778 46.5559C315.068 29.7346 302.969 14.2696 285.924 12.6036C270.675 11.1172 256.558 21.615 253.599 36.6588C251.656 46.5621 254.769 56.1433 261.032 62.9065C263.279 65.3344 264.356 68.6231 263.91 71.9056L263.217 76.978C262.4 82.9856 266.602 88.5225 272.606 89.3401L280.559 90.4239C286.562 91.2414 292.095 87.0361 292.912 81.0285L293.605 75.9561C294.051 72.7045 295.913 69.8184 298.711 68.1028C306.125 63.5569 311.51 55.846 312.778 46.5559Z" stroke="#1D5C58" stroke-width="2" stroke-linecap="round" stroke-linejoin="round"/>
<path d="M247.206 370.639C327.75 370.639 393.043 305.299 393.043 224.697C393.043 144.096 327.75 78.7555 247.206 78.7555C166.663 78.7555 101.369 144.096 101.369 224.697C101.369 305.299 166.663 370.639 247.206 370.639Z" fill="white" stroke="black" stroke-width="2" stroke-miterlimit="10"/>
<path opacity="0.3" d="M234.828 378.424C315.372 378.424 380.665 313.084 380.665 232.482C380.665 151.881 315.372 86.5406 234.828 86.5406C154.285 86.5406 88.9912 151.881 88.9912 232.482C88.9912 313.084 154.285 378.424 234.828 378.424Z" fill="#1D5C58"/>
<path d="M247.206 216.435V370.639" stroke="black" stroke-width="2" stroke-miterlimit="10"/>
<path d="M247.206 80.3844V197.973" stroke="black" stroke-width="2" stroke-miterlimit="10"/>
<path d="M394.492 223.886H102.824" stroke="black" stroke-width="2" stroke-miterlimit="10"/>
<path d="M190.398 90.2443C190.398 90.2443 160.579 155.579 160.579 223.886C160.579 304.58 183.181 355.855 183.181 355.855" stroke="black" stroke-width="2" stroke-miterlimit="10"/>
<path d="M321.196 161.97C314.45 117.396 303.953 91.0804 303.953 91.0804" stroke="black" stroke-width="2" stroke-miterlimit="10"/>
<path d="M296.737 361.999C296.737 361.999 328.579 299.681 326.555 223.05C325.949 200.159 325.732 194.659 323.059 177.002" stroke="black" stroke-width="2" stroke-miterlimit="10"/>
<path d="M130.352 136.949C155.325 146.109 197.601 158.081 245.461 156.811C302.61 155.3 345.011 144.561 364.852 138.441" stroke="black" stroke-width="2" stroke-miterlimit="10"/>
<path d="M368.38 308.24C345.735 299.062 298.371 283.25 243.716 284.693C186.431 286.21 143.968 296.993 124.188 303.106" stroke="black" stroke-width="2" stroke-miterlimit="10"/>
<path d="M489.418 289.22H254.447V399.42H489.418V289.22Z" fill="black" stroke="black" stroke-width="2" stroke-linecap="round" stroke-linejoin="round"/>
<path d="M495.607 283.027H260.636V393.226H495.607V283.027Z" fill="white" stroke="black" stroke-width="2" stroke-linecap="round" stroke-linejoin="round"/>
<path d="M334.297 366.892H294.7C290.599 366.892 287.273 370.219 287.273 374.324V374.652C287.273 378.757 290.599 382.084 294.7 382.084H334.297C338.399 382.084 341.724 378.757 341.724 374.652V374.324C341.724 370.219 338.399 366.892 334.297 366.892Z" fill="white" stroke="black" stroke-width="2" stroke-linecap="round" stroke-linejoin="round"/>
<path d="M410.218 366.892H360.297C356.103 366.892 352.704 370.293 352.704 374.488C352.704 378.683 356.103 382.084 360.297 382.084H410.218C414.412 382.084 417.812 378.683 417.812 374.488C417.812 370.293 414.412 366.892 410.218 366.892Z" fill="white" stroke="black" stroke-width="2" stroke-linecap="round" stroke-linejoin="round"/>
<path d="M451.863 382.345C456.201 382.345 459.717 378.826 459.717 374.485C459.717 370.144 456.201 366.626 451.863 366.626C447.526 366.626 444.009 370.144 444.009 374.485C444.009 378.826 447.526 382.345 451.863 382.345Z" fill="black"/>
<path d="M475.512 382.345C479.849 382.345 483.365 378.826 483.365 374.485C483.365 370.144 479.849 366.626 475.512 366.626C471.174 366.626 467.658 370.144 467.658 374.485C467.658 378.826 471.174 382.345 475.512 382.345Z" fill="white" stroke="black" stroke-width="2" stroke-linecap="round" stroke-linejoin="round"/>
<path d="M278.572 298.95H349.615" stroke="black" stroke-width="2" stroke-linecap="round" stroke-linejoin="round"/>
<path d="M274.896 316.632H383.432" stroke="black" stroke-width="2" stroke-linecap="round" stroke-linejoin="round"/>
<path d="M274.896 333.268H408.311" stroke="black" stroke-width="2" stroke-linecap="round" stroke-linejoin="round"/>
<path d="M368.962 378.895C371.395 378.895 373.368 376.921 373.368 374.485C373.368 372.05 371.395 370.075 368.962 370.075C366.528 370.075 364.555 372.05 364.555 374.485C364.555 376.921 366.528 378.895 368.962 378.895Z" fill="black"/>
<path d="M334.13 366.892H306.571C302.377 366.892 298.977 370.293 298.977 374.488C298.977 378.683 302.377 382.084 306.571 382.084H334.13C338.324 382.084 341.724 378.683 341.724 374.488C341.724 370.293 338.324 366.892 334.13 366.892Z" fill="#1D5C58" stroke="black" stroke-width="2" stroke-miterlimit="10"/>
<path d="M451.139 334.073L434.064 309.206L434.039 309.219C441.28 302.66 445.848 293.116 445.848 282.476C445.848 262.706 430.084 246.678 410.645 246.678C391.205 246.678 375.442 262.706 375.442 282.476C375.442 302.245 391.205 318.274 410.645 318.274C414.903 318.274 418.988 317.506 422.763 316.093L440.358 341.722C442.425 344.738 446.547 345.481 449.512 343.376C452.476 341.27 453.206 337.083 451.139 334.067V334.073Z" fill="black"/>
<path d="M441.726 303.323L458.801 327.793C460.868 330.76 460.138 334.878 457.174 336.953C454.209 339.022 450.093 338.291 448.02 335.324L430.425 310.104" fill="white"/>
<path d="M441.726 303.323L458.801 327.793C460.868 330.76 460.138 334.878 457.174 336.953C454.209 339.022 450.093 338.291 448.02 335.324L430.425 310.104" stroke="black" stroke-width="2" stroke-linecap="round" stroke-linejoin="round"/>
<path d="M418.307 312.247C437.749 312.247 453.51 296.475 453.51 277.019C453.51 257.563 437.749 241.791 418.307 241.791C398.865 241.791 383.104 257.563 383.104 277.019C383.104 296.475 398.865 312.247 418.307 312.247Z" fill="white" stroke="black" stroke-width="2" stroke-linecap="round" stroke-linejoin="round"/>
<path d="M426.421 301.359C422.825 292.466 427.423 287.288 427.052 281.516C426.761 277.019 424.05 275.582 421.061 274.492C418.715 273.638 417.18 270.256 417.224 265.233C417.261 260.724 421.061 251.509 421.061 251.509L409.655 252.865C409.655 252.865 406.758 263.66 405.762 269.965C404.976 274.926 405.564 278.165 407.457 279.794C410.001 281.98 413.882 281.516 413.882 286.179C413.882 290.843 409.983 292.986 413.578 301.88L426.427 301.353L426.421 301.359Z" fill="#1D5C58"/>
<path d="M418.307 302.672C432.465 302.672 443.942 291.187 443.942 277.019C443.942 262.851 432.465 251.366 418.307 251.366C404.149 251.366 392.672 262.851 392.672 277.019C392.672 291.187 404.149 302.672 418.307 302.672Z" stroke="black" stroke-width="2" stroke-linecap="round" stroke-linejoin="round"/>
<path d="M421.055 251.515C421.055 251.515 417.255 260.731 417.218 265.239C417.174 270.262 418.709 273.644 421.055 274.499C424.038 275.589 426.755 277.025 427.046 281.522C427.417 287.288 422.825 292.466 426.415 301.366" stroke="black" stroke-width="2" stroke-linecap="round" stroke-linejoin="round"/>
<path d="M409.649 252.871C409.649 252.871 406.752 263.666 405.756 269.971C404.97 274.932 405.558 278.171 407.452 279.8C409.995 281.986 413.876 281.522 413.876 286.185C413.876 290.849 409.977 292.992 413.573 301.886" stroke="black" stroke-width="2" stroke-linecap="round" stroke-linejoin="round"/>
<path d="M313.843 174.493C313.843 174.493 305.649 182.223 295.759 177.404L275.106 192.838L279.383 200.394L279.098 206.043L292.448 214.856L288.512 224.431L312.445 228.271L332.621 225.781L331.42 204.829L324.717 178.562L313.843 174.487V174.493Z" fill="#1D5C58"/>
<path d="M331.098 143.365C331.098 143.365 366.326 195.687 330.863 191.247C328.542 190.955 325.961 177.373 321.474 175.348C316.765 173.224 307.592 175.237 303.953 174.493C300.896 173.868 295.072 177.392 290.554 180.303C280.361 186.868 282.465 179.176 283.462 171.867C284.402 165.005 286.395 157.35 289.05 150.859C295.703 134.589 331.098 143.371 331.098 143.371V143.365Z" fill="white"/>
<path d="M243.221 198.078C248.698 197.006 251.755 201.336 251.755 201.336C254.181 201.014 269.796 204.544 269.796 204.544C274.574 202.519 277.235 195.086 277.235 195.086L279.222 203.702L283.418 213.549L265.971 219.129L243.227 210.18L229.821 198.864L229.159 188.317L237.756 186.286L243.233 198.072L243.221 198.078Z" fill="white"/>
<path d="M284.724 134.143C281.048 137.822 279.389 141.625 279.389 147.236C279.389 158.465 288.481 167.563 299.701 167.563C304.226 167.563 308.106 166.312 311.485 163.804" fill="white"/>
<path d="M284.724 134.143C281.048 137.822 279.389 141.625 279.389 147.236C279.389 158.465 288.481 167.563 299.701 167.563C304.226 167.563 308.106 166.312 311.485 163.804" stroke="black" stroke-width="2" stroke-linecap="round" stroke-linejoin="round"/>
<path d="M342.436 182.526C351.887 179.795 351.528 170.883 349.529 168.517C347.53 166.151 347.709 163.605 347.709 163.605C347.709 163.605 350.073 157.604 347.709 155.783C345.345 153.962 345.889 153.238 345.531 149.416C345.165 145.595 340.988 145.05 339.533 143.415C338.079 141.78 339.533 135.772 337.714 132.316C335.894 128.86 333.53 127.584 329.353 128.315C325.175 129.046 327.174 123.949 327.174 123.949C327.174 123.949 327.174 116.672 321.356 117.217C315.539 117.762 316.814 115.216 313.905 111.94C310.996 108.664 308.632 109.209 304.454 110.664C300.271 112.119 301.843 115.328 298.265 116.226C294.242 117.235 294.044 116.238 292.052 115.495C289.644 114.597 288.753 114.541 283.913 117.576C277.916 121.329 281.369 126.903 281.369 126.903C281.369 126.903 274.568 132.812 281.512 138.2" fill="white"/>
<path d="M342.436 182.526C351.887 179.795 351.528 170.883 349.529 168.517C347.53 166.151 347.709 163.605 347.709 163.605C347.709 163.605 350.073 157.604 347.709 155.783C345.345 153.962 345.889 153.238 345.531 149.416C345.165 145.595 340.988 145.05 339.533 143.415C338.079 141.78 339.533 135.772 337.714 132.316C335.894 128.86 333.53 127.584 329.353 128.315C325.175 129.046 327.174 123.949 327.174 123.949C327.174 123.949 327.174 116.672 321.356 117.217C315.539 117.762 316.814 115.216 313.905 111.94C310.996 108.664 308.632 109.209 304.454 110.664C300.271 112.119 301.843 115.328 298.265 116.226C294.242 117.235 294.044 116.238 292.052 115.495C289.644 114.597 288.753 114.541 283.913 117.576C277.916 121.329 281.369 126.903 281.369 126.903C281.369 126.903 274.568 132.812 281.512 138.2" stroke="black" stroke-width="2" stroke-linecap="round" stroke-linejoin="round"/>
<path d="M346.447 180.65C350.674 194.789 328.919 191.631 328.919 191.631" stroke="black" stroke-width="2" stroke-linecap="round" stroke-linejoin="round"/>
<path d="M326.073 161.97C326.073 161.97 323.894 168.703 329.706 170.883L326.073 161.97Z" fill="white"/>
<path d="M326.073 161.97C326.073 161.97 323.894 168.703 329.706 170.883" stroke="black" stroke-width="2" stroke-linecap="round" stroke-linejoin="round"/>
<path d="M284.21 133.159C284.21 133.159 281.171 138.435 287.317 141.061C288.573 141.6 291.563 141.507 292.881 141.129C295.134 140.485 295.425 139.525 296.737 138.633C302.301 134.843 308.329 141.662 306.509 146.933" fill="white"/>
<path d="M284.21 133.159C284.21 133.159 281.171 138.435 287.317 141.061C288.573 141.6 291.563 141.507 292.881 141.129C295.134 140.485 295.425 139.525 296.737 138.633C302.301 134.843 308.329 141.662 306.509 146.933" stroke="black" stroke-width="2" stroke-linecap="round" stroke-linejoin="round"/>
<path d="M307.679 143.365C307.679 143.365 313.874 143.532 311.863 154.674C309.852 165.816 313.033 171.923 320.008 173.286" fill="white"/>
<path d="M307.679 143.365C307.679 143.365 313.874 143.532 311.863 154.674C309.852 165.816 313.033 171.923 320.008 173.286" stroke="black" stroke-width="2" stroke-linecap="round" stroke-linejoin="round"/>
<path d="M284.229 160.403C284.229 160.403 281.357 166.615 283.48 169.805C285.603 172.988 284.037 171.929 282.7 174.357C281.357 176.785 280.144 181.034 285.3 184.217" fill="white"/>
<path d="M284.229 160.403C284.229 160.403 281.357 166.615 283.48 169.805C285.603 172.988 284.037 171.929 282.7 174.357C281.357 176.785 280.144 181.034 285.3 184.217" stroke="black" stroke-width="2" stroke-linecap="round" stroke-linejoin="round"/>
<path d="M295.765 167.179V174.549C295.765 175.757 295.19 176.896 294.218 177.609L275.465 191.377C275.007 191.711 274.859 192.33 275.119 192.832C275.843 194.232 278.12 197.409 280.088 198.505" stroke="black" stroke-width="2" stroke-linecap="round" stroke-linejoin="round"/>
<path d="M331.098 238.75C326.759 235.876 303.557 232.445 294.335 231.169V226.543C305.377 228.389 323.226 227.528 327.694 227.528L327.713 227.577L331.098 238.75Z" fill="white" stroke="black" stroke-width="2" stroke-linecap="round" stroke-linejoin="round"/>
<path d="M287.763 224.66C289.353 225.484 291.637 226.091 294.329 226.543H294.335" stroke="black" stroke-width="2" stroke-linecap="round" stroke-linejoin="round"/>
<path d="M313.503 173.292C313.503 173.292 324.823 175.348 325.677 180.656C326.531 185.957 330.318 190.664 331.531 209.319C332.744 227.98 332.596 224.338 332.596 224.338C332.596 224.338 333.252 227.528 327.694 227.528" stroke="black" stroke-width="2" stroke-linecap="round" stroke-linejoin="round"/>
<path d="M295.381 176.209C295.381 176.209 307.561 185.245 314.926 170.889L295.381 176.209Z" fill="white"/>
<path d="M295.381 176.209C295.381 176.209 307.561 185.245 314.926 170.889" stroke="black" stroke-width="2" stroke-linecap="round" stroke-linejoin="round"/>
<path d="M276.06 194.25C276.06 194.25 273.398 201.676 268.62 203.708C268.62 203.708 253.006 200.177 250.58 200.5C250.58 200.5 247.528 196.164 242.045 197.242" stroke="black" stroke-width="2" stroke-linecap="round" stroke-linejoin="round"/>
<path d="M243.221 203.708L241.209 192.628L238.944 192.151L226.641 189.55L231.177 203.708" fill="white"/>
<path d="M243.221 203.708L241.209 192.628L238.944 192.151L226.641 189.55L231.177 203.708" stroke="black" stroke-width="2" stroke-linecap="round" stroke-linejoin="round"/>
<path d="M281.017 208.446C281.017 208.446 281.815 209.189 276.808 213.419C271.795 217.649 262.407 211.902 258.768 209.629C256.007 207.901 249.855 206.699 247.039 206.222C246.123 206.067 245.282 205.628 244.613 204.977C242.082 202.494 235.188 196.771 231.177 203.714C227.259 210.496 232.669 214.54 236.574 214.887C238.053 215.017 240.665 214.583 241.562 214.546C242.868 214.49 244.162 214.813 245.307 215.438C252.442 219.303 274.475 229.918 281.531 229.355C289.137 228.748 291.241 214.379 291.241 214.379" fill="white"/>
<path d="M281.017 208.446C281.017 208.446 281.815 209.189 276.808 213.419C271.795 217.649 262.407 211.902 258.768 209.629C256.007 207.901 249.855 206.699 247.039 206.222C246.123 206.067 245.282 205.628 244.613 204.977C242.082 202.494 235.188 196.771 231.177 203.714C227.259 210.496 232.669 214.54 236.574 214.887C238.053 215.017 240.665 214.583 241.562 214.546C242.868 214.49 244.162 214.813 245.307 215.438C252.442 219.303 274.475 229.918 281.531 229.355C289.137 228.748 291.241 214.379 291.241 214.379" stroke="black" stroke-width="2" stroke-linecap="round" stroke-linejoin="round"/>
<path d="M286.964 188.918C286.989 188.881 278.312 198.734 278.38 203.633C278.448 208.489 287.874 214.1 293.939 215.011C293.939 215.011 300.005 203.026 302.734 201.051" stroke="black" stroke-width="2" stroke-linecap="round" stroke-linejoin="round"/>
<path d="M238.827 184.211L238.944 192.145" stroke="black" stroke-width="2" stroke-linecap="round" stroke-linejoin="round"/>
<path d="M238.827 184.211L226.641 189.55" stroke="black" stroke-width="2" stroke-linecap="round" stroke-linejoin="round"/>
<path d="M331.098 238.75L327.713 227.577C327.905 228.091 329.532 232.544 331.098 238.75Z" fill="white" stroke="black" stroke-width="2" stroke-linecap="round" stroke-linejoin="round"/>
<path d="M294.329 226.537C294.329 226.537 293.816 228.494 294.329 231.169V226.537Z" fill="white"/>
<path d="M294.329 226.537C294.329 226.537 293.816 228.494 294.329 231.169" stroke="black" stroke-width="2" stroke-linecap="round" stroke-linejoin="round"/>
<path d="M252.82 312.483C252.82 312.483 256.942 323.049 253.358 325.433C250.889 327.074 248.964 324.715 246.513 325.074C244.062 325.433 238.969 329.403 235.484 326.876C232.6 324.783 232 322.151 233.262 319.698C234.531 317.221 241.036 317.134 242.837 317.716C242.837 317.716 243.728 313.895 243.412 310.879" fill="white"/>
<path d="M252.82 312.483C252.82 312.483 256.942 323.049 253.358 325.433C250.889 327.074 248.964 324.715 246.513 325.074C244.062 325.433 238.969 329.403 235.484 326.876C232.6 324.783 232 322.151 233.262 319.698C234.531 317.221 241.036 317.134 242.837 317.716C242.837 317.716 243.728 313.895 243.412 310.879" stroke="black" stroke-width="2" stroke-linecap="round" stroke-linejoin="round"/>
<path d="M252.826 312.489C251.947 312.532 250.939 312.545 249.868 312.483C247.764 312.353 245.43 311.932 243.419 310.879L249.8 311.969L249.93 311.993L252.826 312.489Z" fill="white" stroke="black" stroke-width="2" stroke-linecap="round" stroke-linejoin="round"/>
<path d="M262.401 273.854L256.379 309.318C256.075 311.077 254.602 312.396 252.826 312.489L249.93 311.993L249.8 311.969L243.419 310.879H243.413C242.911 310.619 242.429 310.321 241.977 309.974C236.859 306.085 237.348 292.98 237.348 292.98C244.217 280.766 251.353 265.27 251.353 265.27" fill="white"/>
<path d="M262.401 273.854L256.379 309.318C256.075 311.077 254.602 312.396 252.826 312.489L249.93 311.993L249.8 311.969L243.419 310.879H243.413C242.911 310.619 242.429 310.321 241.977 309.974C236.859 306.085 237.348 292.98 237.348 292.98C244.217 280.766 251.353 265.27 251.353 265.27" stroke="black" stroke-width="2" stroke-linecap="round" stroke-linejoin="round"/>
<path d="M224.45 306.537C224.45 306.537 226.133 321.123 222.246 322.72C219.505 323.848 218.007 321.736 215.544 321.513C213.08 321.29 207.195 323.947 204.403 320.67C202.095 317.958 202.132 315.257 203.927 313.17C205.722 311.083 212.084 312.514 213.699 313.498C213.699 313.498 216.138 310.674 215.816 306.915" fill="white"/>
<path d="M224.45 306.537C224.45 306.537 226.133 321.123 222.246 322.72C219.505 323.848 218.007 321.736 215.544 321.513C213.08 321.29 207.195 323.947 204.403 320.67C202.095 317.958 202.132 315.257 203.927 313.17C205.722 311.083 212.084 312.514 213.699 313.498C213.699 313.498 216.138 310.674 215.816 306.915" stroke="black" stroke-width="2" stroke-linecap="round" stroke-linejoin="round"/>
<path d="M319.036 283.956C293.488 289.028 271.888 282.085 255.543 268.893C254.107 267.735 252.708 266.521 251.353 265.27C251.353 265.27 244.217 280.766 237.347 292.98C234.241 298.517 231.183 303.378 228.868 305.825C228.868 305.825 227.024 306.209 224.45 306.537C223.614 306.649 222.704 306.748 221.757 306.822C219.833 306.983 217.753 307.057 215.835 306.921H215.816C215.117 306.865 214.442 306.785 213.805 306.673C213.805 306.673 212.796 287.121 215.711 270.578C218.892 252.53 226.306 230.16 234.247 228.463C242.181 226.766 272.098 227.063 290.554 239.004V230.661C290.554 230.661 291.996 230.847 294.335 231.169C300.06 231.962 311.188 233.585 319.828 235.387C325.101 236.496 329.458 237.66 331.098 238.756C334.966 254.079 338.457 280.097 319.036 283.956Z" fill="white" stroke="black" stroke-width="2" stroke-linecap="round" stroke-linejoin="round"/>
<path d="M319.828 235.387C319.828 235.387 322.644 258.266 316.703 266.336C310.761 274.406 296.972 267.395 289.335 263.363C281.698 259.331 266.207 249.867 256.236 247.062C246.266 244.256 239.087 252.338 234.173 260.39C229.518 268.008 224.734 290.378 221.764 306.828" stroke="black" stroke-width="2" stroke-linecap="round" stroke-linejoin="round"/>
<path d="M249.8 311.969L249.93 311.993L249.868 312.483C249.843 312.316 249.818 312.142 249.8 311.969Z" fill="white" stroke="black" stroke-width="2" stroke-linecap="round" stroke-linejoin="round"/>
<path d="M305.154 126.971C305.154 126.971 307.512 124.55 311.485 125.15C315.452 125.757 316.665 128.582 316.665 128.582" fill="white"/>
<path d="M305.154 126.971C305.154 126.971 307.512 124.55 311.485 125.15C315.452 125.757 316.665 128.582 316.665 128.582" stroke="black" stroke-width="2" stroke-linecap="round" stroke-linejoin="round"/>
<path d="M249.8 311.969C249.8 311.969 246.693 282.042 255.543 268.893L249.8 311.969Z" fill="white"/>
<path d="M249.8 311.969C249.8 311.969 246.693 282.042 255.543 268.893" stroke="black" stroke-width="2" stroke-linecap="round" stroke-linejoin="round"/>
<path d="M95.4652 354.028C95.4652 354.028 145.905 351.619 150.498 321.612C155.09 291.611 128.001 279.205 104.346 285.783C80.6859 292.36 56.8955 308.81 63.7033 337.151C70.505 365.492 101.308 372.658 101.308 372.658C101.308 372.658 93.9674 366.787 95.4652 354.028Z" fill="#1D5C58"/>
<path d="M91.6092 358.946C91.6092 358.946 142.049 356.537 146.642 326.529C151.234 296.528 124.145 284.123 100.49 290.701C76.8299 297.278 53.0395 313.728 59.8474 342.069C66.6491 370.41 97.4516 377.576 97.4516 377.576C97.4516 377.576 90.1115 371.704 91.6092 358.946Z" stroke="black" stroke-width="2" stroke-linecap="round" stroke-linejoin="round"/>
<path d="M140.081 360.94C140.081 360.94 147.892 346.763 164.633 347.178C184.71 347.674 187.959 358.766 187.941 367.09C187.928 375.414 174.975 381.657 167.412 382.685C159.849 383.713 136.603 383.831 125.16 365.529C125.16 365.529 133.7 369.543 140.075 360.934L140.081 360.94Z" fill="white" stroke="black" stroke-width="2" stroke-linecap="round" stroke-linejoin="round"/>
<path d="M173.18 338.823C173.18 338.823 179.517 322.225 185.929 324.808C191.425 327.019 190.441 334.098 186.084 335.299C183.187 336.098 173.173 338.823 173.173 338.823H173.18Z" fill="#1D5C58" stroke="black" stroke-width="2" stroke-linejoin="round"/>
<path d="M159.49 330.914C159.49 330.914 164.701 327.266 164.466 321.55C164.23 315.833 163.475 307.819 168.878 307.429C174.281 307.039 177.314 312.285 176.701 316.199C175.587 323.315 173.57 328.177 159.49 330.914Z" fill="#1D5C58" stroke="black" stroke-width="2" stroke-linejoin="round"/>
<path d="M164.286 95.6821C163.376 103.077 162.9 107.171 162.9 107.171L133.892 103.604C133.892 103.604 137.265 75.7331 137.575 75.7331C137.884 75.7331 147.564 76.7117 147.564 76.7117C147.564 76.7117 144.58 68.8027 152.608 69.806C161.668 70.9394 155.851 77.9442 155.851 77.9442L165.809 79.1333L164.874 87.8351C164.874 87.8351 158.524 84.8498 157.596 90.8327C156.581 97.3606 164.28 95.6883 164.28 95.6883L164.286 95.6821Z" fill="white" stroke="black" stroke-width="2" stroke-linecap="round" stroke-linejoin="round"/>
<path d="M203.413 82.1371C203.345 82.5397 207.746 91.6254 207.746 91.6254L181.43 103.244C181.43 103.244 180.019 100.395 176.999 94.1833C176.999 94.1833 174.672 96.5244 171.986 96.1652C168.916 95.7503 167.103 93.4215 167.536 90.8327C168.235 86.6273 173.576 87.6864 173.576 87.6864C171.862 84.1066 169.269 78.4025 169.355 78.3467L178.948 74.6121C178.948 74.6121 177.376 73.6769 176.497 71.9118C175.346 69.614 176.07 65.9847 180.706 65.4459C187.266 64.6841 186.938 71.4721 186.938 71.4721L196.277 67.756L199.799 75.1509C199.799 75.1509 192.694 76.0056 195.176 81.5178C197.478 86.6335 203.413 82.1433 203.413 82.1433V82.1371Z" fill="#1E5C58"/>
<path d="M261.269 382.461L277.335 410.877L259.579 407.309L244.862 417.869L247.882 384.796L261.269 382.461Z" fill="#1D5C58" stroke="black" stroke-width="2" stroke-linecap="round" stroke-linejoin="round"/>
<path d="M248.185 389.924L242.572 391.404L241.631 385.737L236.03 384.245L238.079 378.857L234 374.787L238.487 371.121L237.02 365.566L242.745 364.605L244.28 359.056L249.708 361.057L253.836 357L257.518 361.428L263.132 359.948L264.072 365.615L269.667 367.108L267.625 372.496L271.703 376.565L267.216 380.232L268.683 385.781L262.958 386.741L261.423 392.296L255.989 390.29L251.868 394.353L248.185 389.924Z" fill="white" stroke="black" stroke-width="2" stroke-linecap="round" stroke-linejoin="round"/>
</svg>
