<svg width="133" height="97" viewBox="0 0 133 97" fill="none" xmlns="http://www.w3.org/2000/svg">
<path d="M22.5389 94C24.5085 79.853 20.0195 71.3418 11.9136 69.5974C3.8077 67.853 2.38259 59 2.38259 59C-5.44662 92.1597 22.5297 93.9907 22.5297 93.9907" fill="white"/>
<path d="M22.5389 94C24.5085 79.853 20.0195 71.3418 11.9136 69.5974C3.8077 67.853 2.38259 59 2.38259 59C-5.44662 92.1597 22.5297 93.9907 22.5297 93.9907" stroke="#1E5C58" stroke-width="2" stroke-linecap="round" stroke-linejoin="round"/>
<path d="M10.4299 77C22.8034 85.6358 21 94 21 94L10.4299 77Z" fill="white"/>
<path d="M10.4299 77C22.8034 85.6358 21 94 21 94" stroke="#1E5C58" stroke-width="2" stroke-linecap="round" stroke-linejoin="round"/>
<path d="M109.136 90.9513C111.296 88.4117 106.636 94.9513 115.636 74.9513C112.531 59.9513 124.531 47.4513 131.031 41.9513C131.031 41.9513 91.6272 38.4513 99.1363 85.4513L109.136 90.9513Z" fill="white" stroke="#1E5C58" stroke-width="2" stroke-linecap="round" stroke-linejoin="round"/>
<path d="M116.531 51C100.298 59.9595 108.934 92.0324 108.934 92.0324L116.531 51Z" fill="white"/>
<path d="M116.531 51C100.298 59.9595 108.934 92.0324 108.934 92.0324" stroke="#1E5C58" stroke-width="2" stroke-linecap="round" stroke-linejoin="round"/>
<path d="M106.435 93.8115C107.44 96.7042 119.255 94.668 120.531 84C121.807 73.332 126.861 64.9658 130.175 64.7214C130.175 64.7214 94.7015 59.873 106.435 93.8251" fill="white"/>
<path d="M106.435 93.8115C107.44 96.7042 119.255 94.668 120.531 84C121.807 73.332 126.861 64.9658 130.175 64.7214C130.175 64.7214 94.7015 59.873 106.435 93.8251" stroke="#1E5C58" stroke-width="2" stroke-linecap="round" stroke-linejoin="round"/>
<path d="M117.11 73.3859C117.11 73.3859 115.874 77.7318 109.749 81.3036C103.624 84.8753 106.436 93.8115 106.436 93.8115" fill="white"/>
<path d="M117.11 73.3859C117.11 73.3859 115.874 77.7318 109.749 81.3036C103.624 84.8753 106.436 93.8115 106.436 93.8115" stroke="#1E5C58" stroke-width="2" stroke-linecap="round" stroke-linejoin="round"/>
<path d="M71.8047 94.3003H106.123V8.89044H20.7136V94.3003H57.0016" fill="white"/>
<path d="M71.8047 94.3003H106.123V8.89044H20.7136V94.3003H57.0016" stroke="#1E5C58" stroke-width="2" stroke-linecap="round" stroke-linejoin="round"/>
<path d="M118.264 1H10.5413V9.09417H118.264V1Z" fill="white" stroke="#1E5C58" stroke-width="2" stroke-linecap="round" stroke-linejoin="round"/>
<path d="M94.9056 54.6579H36.4265V62.7521H94.9056V54.6579Z" fill="white" stroke="#1E5C58" stroke-width="2" stroke-linecap="round" stroke-linejoin="round"/>
<path d="M92.6646 17.9081H34.1855V26.0023H92.6646V17.9081Z" fill="white" stroke="#1E5C58" stroke-width="2" stroke-linecap="round" stroke-linejoin="round"/>
<path d="M60.2471 36.283H35.1633V44.3771H60.2471V36.283Z" fill="white" stroke="#1E5C58" stroke-width="2" stroke-linecap="round" stroke-linejoin="round"/>
<path d="M93.5337 36.283H68.45V44.3771H93.5337V36.283Z" fill="white" stroke="#1E5C58" stroke-width="2" stroke-linecap="round" stroke-linejoin="round"/>
<path d="M71.8043 94.3003V77.3107C71.8043 73.2228 68.4906 69.9091 64.4028 69.9091C60.315 69.9091 57.0012 73.2228 57.0012 77.3107V94.3003" fill="white"/>
<path d="M71.8043 94.3003V77.3107C71.8043 73.2228 68.4906 69.9091 64.4028 69.9091C60.315 69.9091 57.0012 73.2228 57.0012 77.3107V94.3003" stroke="#1E5C58" stroke-width="2" stroke-linecap="round" stroke-linejoin="round"/>
<path d="M71.8043 94.3003H57.0012" stroke="#1E5C58" stroke-width="2" stroke-linecap="round" stroke-linejoin="round"/>
</svg>
