<svg width="30" height="30" viewBox="0 0 30 30" fill="none" xmlns="http://www.w3.org/2000/svg">
<path d="M10.7218 11.3459H7.89478V21.9475H10.7218V11.3459Z" fill="white"/>
<path d="M9.30831 9.93229C8.46019 9.93229 7.89478 9.2962 7.89478 8.51876C7.89478 7.74131 8.46019 7.10522 9.30831 7.10522C10.1564 7.10522 10.7218 7.74131 10.7218 8.51876C10.7218 9.2962 10.1564 9.93229 9.30831 9.93229Z" fill="white"/>
<path d="M22.7368 15.2332C22.7368 13.1129 20.9699 11.3459 18.8496 11.3459C17.5067 11.3459 16.3759 11.982 15.6691 12.9715V11.3459H12.842V21.9475H15.6691V16.2933C15.6691 15.0918 16.5879 14.173 17.7894 14.173C18.9909 14.173 19.9097 15.0918 19.9097 16.2933V21.9475H22.7368C22.7368 21.9475 22.7368 15.5159 22.7368 15.2332Z" fill="white"/>
<circle cx="15" cy="15" r="14.75" stroke="white" stroke-width="0.5"/>
</svg>
