<svg width="1007" height="309" viewBox="0 0 1007 309" fill="none" xmlns="http://www.w3.org/2000/svg">
<g clip-path="url(#clip0_491_515)">
<path d="M994.68 173.65C988.34 173.65 983.19 168.51 983.19 162.16C983.19 155.81 988.33 150.67 994.68 150.67C1001.03 150.67 1006.17 155.81 1006.17 162.16C1006.17 168.51 1001.03 173.65 994.68 173.65Z" fill="white"/>
<path d="M190.61 1.67998C162.84 1.67998 140.21 14.71 129.59 39.73C118.61 14.71 95.99 1.67998 68.56 1.67998C29.48 1.67998 0 26.02 0 76.41V175.48H22.97V76.41C22.97 40.41 42.85 22.93 70.28 22.93C97.71 22.93 118.28 41.1 118.28 76.41V175.48H141.25V76.41C141.25 41.1 161.48 22.93 188.9 22.93C216.32 22.93 236.21 40.42 236.21 76.41V175.48H259.18V76.41C259.18 26.01 229.69 1.66998 190.62 1.66998" fill="white"/>
<path d="M376.42 181.62C322.99 181.62 291.09 149.08 291.09 94.58V6.40002C291.09 5.33002 291.96 4.46002 293.03 4.46002H315.93C317 4.46002 317.87 5.33002 317.87 6.40002V94.58C317.87 133.38 339.76 156.55 376.42 156.55C413.08 156.55 434.97 133.38 434.97 94.58V6.40002C434.97 5.33002 435.84 4.46002 436.91 4.46002H459.81C460.88 4.46002 461.75 5.33002 461.75 6.40002V94.58C461.75 149.08 429.85 181.62 376.42 181.62ZM294.98 8.34002V94.58C294.98 121.33 302.52 142.24 317.38 156.76C331.43 170.49 351.85 177.74 376.43 177.74C401.01 177.74 421.43 170.49 435.48 156.76C450.34 142.24 457.88 121.32 457.88 94.58V8.34002H438.86V94.58C438.86 135.81 415.52 160.43 376.43 160.43C337.34 160.43 314 135.81 314 94.58V8.34002H294.98Z" fill="white"/>
<path d="M578 181.62C524.19 181.62 485.13 143.43 485.13 90.81C485.13 38.19 524.19 0 578 0C631.81 0 670.18 38.19 670.18 90.81V98.33C670.18 99.4 669.31 100.27 668.24 100.27H512.8C516.71 134.03 542.66 156.55 577.99 156.55C603.72 156.55 623.76 146.1 634.41 127.12C634.75 126.51 635.4 126.13 636.1 126.13H661.05C661.7 126.13 662.3 126.45 662.66 126.99C663.02 127.53 663.09 128.22 662.84 128.82C649.23 161.39 616.72 181.63 577.98 181.63L578 181.62ZM578 3.88C526.44 3.88 489.01 40.44 489.01 90.81C489.01 141.18 526.43 177.74 578 177.74C614.06 177.74 644.47 159.53 658.09 130.01H637.23C625.73 149.64 604.74 160.43 578 160.43C539.8 160.43 511.97 135.54 508.73 98.5C508.68 97.96 508.86 97.42 509.23 97.02C509.6 96.62 510.12 96.39 510.66 96.39H666.3V90.81C666.3 39.63 629.99 3.88 578 3.88ZM644.32 79.76H511.35C510.78 79.76 510.25 79.51 509.88 79.08C509.51 78.65 509.35 78.08 509.43 77.52C514.72 43.3 541.64 21.18 578 21.18C614.36 21.18 640.76 43.29 646.23 77.51C646.32 78.07 646.16 78.64 645.79 79.08C645.42 79.51 644.88 79.76 644.31 79.76H644.32ZM513.65 75.88H642.01C636.06 44.93 611.17 25.07 578.01 25.07C544.85 25.07 519.44 44.93 513.65 75.88Z" fill="white"/>
<path d="M980.33 6.14001H931.46V105.21C931.46 141.21 911.58 158.69 884.15 158.69C856.72 158.69 836.5 140.52 836.5 105.21V6.14001H813.53V105.21C813.53 140.52 792.96 158.69 765.54 158.69C738.12 158.69 718.23 141.21 718.23 105.21V6.14001H695.26V105.21C695.26 155.6 724.74 179.95 763.82 179.95C791.24 179.95 813.87 166.92 824.84 141.9C835.47 166.92 858.09 179.95 885.86 179.95C924.94 179.95 954.43 155.61 954.43 105.21V29.11H980.33V6.14001Z" fill="white"/>
<path d="M10.17 293.45C7.91998 293.45 7.22998 292.36 7.22998 290.58V250.85C7.22998 249.08 7.90998 247.98 10.17 247.98H36.45V250.3H9.75998V269.55H35.29V271.87L9.75998 271.94V291.05H37.14V293.44H10.17V293.45Z" fill="white"/>
<path d="M74.2701 277.34V260.55H76.6601V277.55C76.6601 286.97 70.7201 294.07 61.5001 294.07C52.2801 294.07 46.6201 286.9 46.6201 277.48V260.55H49.0101V277.41C49.0101 285.06 53.5801 291.75 61.5001 291.75C69.4201 291.75 74.2701 285.06 74.2701 277.35V277.34Z" fill="white"/>
<path d="M87.9897 293.45V272.7C87.9897 265.26 92.3598 260.21 99.1898 260.21C101.17 260.21 103.01 260.62 104.72 261.51V264.04C103.08 263.02 101.24 262.54 99.3298 262.54C93.8698 262.54 90.3897 266.64 90.3897 272.85V293.47H87.9997L87.9897 293.45Z" fill="white"/>
<path d="M107.45 276.93C107.45 267.51 115.1 259.86 124.59 259.86C134.08 259.86 141.59 267.57 141.59 276.93C141.59 286.29 134.15 294.06 124.59 294.06C115.03 294.06 107.45 286.35 107.45 276.93ZM139.19 276.93C139.19 268.87 132.64 262.18 124.58 262.18C116.52 262.18 109.9 268.87 109.9 276.93C109.9 284.99 116.39 291.74 124.58 291.74C132.77 291.74 139.19 285.05 139.19 276.93Z" fill="white"/>
<path d="M150.73 308.54V276.93C150.73 267.37 158.38 259.86 167.87 259.86C177.36 259.86 184.87 267.57 184.87 276.93C184.87 286.29 177.5 294.13 167.94 294.13C161.39 294.13 155.86 290.38 153.19 284.91L153.12 308.53H150.73V308.54ZM182.47 276.93C182.47 268.87 175.98 262.18 167.86 262.18C159.74 262.18 153.18 268.87 153.18 276.93C153.18 284.99 159.67 291.81 167.86 291.81C176.05 291.81 182.47 285.05 182.47 276.93Z" fill="white"/>
<path d="M191.49 277C191.49 267.51 197.98 259.86 207.4 259.86C216.82 259.86 222.97 266.48 222.97 275.9V277.68H193.96C194.23 285.53 200.1 291.74 208.16 291.74C212.94 291.74 217.38 289.83 220.04 285.19L221.95 286.35C218.88 291.61 213.83 294.06 208.16 294.06C198.67 294.06 191.5 286.55 191.5 276.99L191.49 277ZM220.57 275.63C220.57 267.58 215.04 262.18 207.39 262.18C199.74 262.18 194.56 268.12 194.01 275.63H220.57Z" fill="white"/>
<path d="M229.92 276.93C229.92 267.58 237.22 259.86 246.99 259.86C256.76 259.86 264.06 267.37 264.06 276.93V293.45H261.74V284.37C259.21 290.11 253.62 294.06 246.79 294.06C237.3 294.06 229.93 286.35 229.93 276.93H229.92ZM261.66 276.93C261.66 268.87 255.11 262.18 246.98 262.18C238.85 262.18 232.37 268.87 232.37 276.93C232.37 284.99 238.86 291.74 246.98 291.74C255.1 291.74 261.66 285.05 261.66 276.93Z" fill="white"/>
<path d="M278.25 276.52V293.45H275.86V276.45C275.86 267.03 281.66 259.86 291.08 259.86C300.5 259.86 306.64 266.96 306.64 276.38V293.45H304.25V276.59C304.25 268.88 299.47 262.19 291.07 262.19C282.67 262.19 278.24 268.88 278.24 276.53L278.25 276.52Z" fill="white"/>
<path d="M392.19 276.05V293.46H389.8V276.33C389.8 268.75 385.7 262.2 377.99 262.2C370.69 262.2 366.38 268.41 366.38 275.99V293.47H363.99V276.06C363.99 268.41 359.62 262.2 352.11 262.2C344.6 262.2 340.5 268.75 340.5 276.26V293.46H338.11V276.12C338.11 266.9 343.3 259.87 351.97 259.87C359 259.87 363.92 264.31 365.21 270.45C366.58 264.31 371.22 259.87 378.04 259.87C386.92 259.87 392.17 266.9 392.17 276.05H392.19Z" fill="white"/>
<path d="M404.54 249.42C404.54 248.12 405.43 247.24 406.59 247.24C407.82 247.24 408.64 248.13 408.64 249.42C408.64 250.65 407.82 251.54 406.59 251.54C405.43 251.54 404.54 250.65 404.54 249.42ZM407.75 260.55V293.46H405.36V260.55H407.75Z" fill="white"/>
<path d="M423.31 276.52V293.45H420.92V276.45C420.92 267.03 426.72 259.86 436.14 259.86C445.56 259.86 451.7 266.96 451.7 276.38V293.45H449.31V276.59C449.31 268.88 444.53 262.19 436.13 262.19C427.73 262.19 423.3 268.88 423.3 276.53L423.31 276.52Z" fill="white"/>
<path d="M460.86 277.07C460.86 267.58 468.3 259.87 477.86 259.87C484.35 259.87 489.88 263.62 492.54 268.95L492.61 245.47H495V277.08C495 286.57 487.42 294.15 477.93 294.15C468.44 294.15 460.86 286.44 460.86 277.08V277.07ZM492.6 277.07C492.6 268.95 486.05 262.19 477.92 262.19C469.79 262.19 463.31 268.95 463.31 277.07C463.31 285.19 469.8 291.82 477.92 291.82C486.04 291.82 492.6 285.13 492.6 277.07Z" fill="white"/>
<path d="M505.16 286.9L507.21 285.74C509.33 289.9 512.88 291.61 517.11 291.61C522.03 291.61 526.26 289.08 526.26 284.65C526.26 274.61 506.26 281.51 506.26 269.15C506.26 263.83 511.24 260.21 516.91 260.21C521.69 260.21 525.72 262.19 527.97 266.22L525.92 267.38C523.94 263.76 520.66 262.53 516.98 262.53C512.75 262.53 508.72 265.12 508.72 269.15C508.72 278.91 528.72 272.15 528.72 284.65C528.72 290.38 523.33 293.93 517.18 293.93C512.06 293.93 507.55 291.61 505.16 286.9Z" fill="white"/>
<path d="M536.23 277C536.23 267.51 542.72 259.86 552.14 259.86C561.56 259.86 567.71 266.48 567.71 275.9V277.68H538.7C538.97 285.53 544.84 291.74 552.9 291.74C557.68 291.74 562.12 289.83 564.78 285.19L566.69 286.35C563.62 291.61 558.57 294.06 552.9 294.06C543.41 294.06 536.24 286.55 536.24 276.99L536.23 277ZM565.31 275.63C565.31 267.58 559.78 262.18 552.13 262.18C544.48 262.18 539.3 268.12 538.75 275.63H565.31Z" fill="white"/>
<path d="M579.44 283.42V262.8H572.07V260.55H579.44V251.74H581.83V260.55H595.83V262.8H581.83V283.35C581.83 288.68 584.83 291.81 589.48 291.81C592.01 291.81 594.19 290.85 595.83 289.35V291.88C594.12 293.25 591.8 294.13 589.34 294.13C583.26 294.13 579.44 289.97 579.44 283.41V283.42Z" fill="white"/>
<path d="M630.23 293.45V262.8H623.47V260.55H630.23V255.63C630.23 249.42 634.05 245.05 640.33 245.05C642.45 245.05 644.36 245.53 646 246.42V248.95C644.5 247.93 642.59 247.31 640.47 247.31C635.62 247.31 632.62 250.45 632.62 255.71V260.56H645.86V262.81H632.62V293.46H630.23V293.45Z" fill="white"/>
<path d="M649.21 276.93C649.21 267.51 656.86 259.86 666.35 259.86C675.84 259.86 683.35 267.57 683.35 276.93C683.35 286.29 675.91 294.06 666.35 294.06C656.79 294.06 649.21 286.35 649.21 276.93ZM680.95 276.93C680.95 268.87 674.4 262.18 666.34 262.18C658.28 262.18 651.66 268.87 651.66 276.93C651.66 284.99 658.15 291.74 666.34 291.74C674.53 291.74 680.95 285.05 680.95 276.93Z" fill="white"/>
<path d="M692.49 293.45V272.7C692.49 265.26 696.86 260.21 703.69 260.21C705.67 260.21 707.51 260.62 709.22 261.51V264.04C707.58 263.02 705.74 262.54 703.83 262.54C698.37 262.54 694.89 266.64 694.89 272.85V293.47H692.5L692.49 293.45Z" fill="white"/>
<path d="M736.11 293.45V247.98H749.7C760.55 247.98 767.24 251.8 767.24 259.38C767.24 265.8 763.69 269.48 757.75 270.58C764.51 271.47 768.19 274.88 768.19 281.16C768.19 291.26 759.18 293.45 749.08 293.45H736.11ZM738.64 269.49H749.43C760.35 269.49 764.79 266.55 764.79 259.52C764.79 253.24 759.06 250.23 749.77 250.23H738.64V269.48V269.49ZM738.64 291.2H749.15C757.62 291.2 765.74 289.83 765.74 281.03C765.74 274.41 760.76 271.75 749.42 271.75H738.63V291.21L738.64 291.2Z" fill="white"/>
<path d="M805.67 277.34V260.55H808.06V277.55C808.06 286.97 802.12 294.07 792.9 294.07C783.68 294.07 778.02 286.9 778.02 277.48V260.55H780.41V277.41C780.41 285.06 784.98 291.75 792.9 291.75C800.82 291.75 805.67 285.06 805.67 277.35V277.34Z" fill="white"/>
<path d="M817.75 286.9L819.8 285.74C821.92 289.9 825.47 291.61 829.7 291.61C834.62 291.61 838.85 289.08 838.85 284.65C838.85 274.61 818.85 281.51 818.85 269.15C818.85 263.83 823.83 260.21 829.5 260.21C834.28 260.21 838.31 262.19 840.56 266.22L838.51 267.38C836.53 263.76 833.25 262.53 829.57 262.53C825.34 262.53 821.31 265.12 821.31 269.15C821.31 278.91 841.31 272.15 841.31 284.65C841.31 290.38 835.92 293.93 829.77 293.93C824.65 293.93 820.14 291.61 817.75 286.9Z" fill="white"/>
<path d="M851.95 249.42C851.95 248.12 852.84 247.24 854 247.24C855.23 247.24 856.05 248.13 856.05 249.42C856.05 250.65 855.23 251.54 854 251.54C852.84 251.54 851.95 250.65 851.95 249.42ZM855.16 260.55V293.46H852.77V260.55H855.16Z" fill="white"/>
<path d="M870.73 276.52V293.45H868.34V276.45C868.34 267.03 874.14 259.86 883.56 259.86C892.98 259.86 899.12 266.96 899.12 276.38V293.45H896.73V276.59C896.73 268.88 891.95 262.19 883.55 262.19C875.15 262.19 870.72 268.88 870.72 276.53L870.73 276.52Z" fill="white"/>
<path d="M908.27 277C908.27 267.51 914.76 259.86 924.18 259.86C933.6 259.86 939.74 266.48 939.74 275.9V277.68H910.73C911 285.53 916.87 291.74 924.93 291.74C929.71 291.74 934.15 289.83 936.81 285.19L938.72 286.35C935.65 291.61 930.6 294.06 924.93 294.06C915.44 294.06 908.27 286.55 908.27 276.99V277ZM937.35 275.63C937.35 267.58 931.82 262.18 924.17 262.18C916.52 262.18 911.34 268.12 910.79 275.63H937.35Z" fill="white"/>
<path d="M947.66 286.9L949.71 285.74C951.83 289.9 955.38 291.61 959.61 291.61C964.53 291.61 968.76 289.08 968.76 284.65C968.76 274.61 948.76 281.51 948.76 269.15C948.76 263.83 953.74 260.21 959.41 260.21C964.19 260.21 968.22 262.19 970.47 266.22L968.42 267.38C966.44 263.76 963.16 262.53 959.48 262.53C955.25 262.53 951.22 265.12 951.22 269.15C951.22 278.91 971.22 272.15 971.22 284.65C971.22 290.38 965.83 293.93 959.68 293.93C954.56 293.93 950.05 291.61 947.66 286.9Z" fill="white"/>
<path d="M979.68 286.9L981.73 285.74C983.85 289.9 987.4 291.61 991.63 291.61C996.55 291.61 1000.78 289.08 1000.78 284.65C1000.78 274.61 980.78 281.51 980.78 269.15C980.78 263.83 985.76 260.21 991.43 260.21C996.21 260.21 1000.24 262.19 1002.49 266.22L1000.44 267.38C998.46 263.76 995.18 262.53 991.5 262.53C987.27 262.53 983.24 265.12 983.24 269.15C983.24 278.91 1003.24 272.15 1003.24 284.65C1003.24 290.38 997.85 293.93 991.7 293.93C986.58 293.93 982.07 291.61 979.68 286.9Z" fill="white"/>
</g>
<defs>
<clipPath id="clip0_491_515">
<rect width="1006.16" height="308.54" fill="white"/>
</clipPath>
</defs>
</svg>
