<svg width="365" height="119" viewBox="0 0 365 119" fill="none" xmlns="http://www.w3.org/2000/svg">
<g clip-path="url(#clip0_400_515)">
<path d="M360.835 63.0568C358.535 63.0568 356.667 61.1903 356.667 58.8845C356.667 56.5786 358.532 54.7122 360.835 54.7122C363.139 54.7122 365.004 56.5786 365.004 58.8845C365.004 61.1903 363.139 63.0568 360.835 63.0568Z" fill="white"/>
<path d="M69.1467 0.610107C59.0727 0.610107 50.8633 5.34164 47.0108 14.427C43.0276 5.34164 34.8218 0.610107 24.8712 0.610107C10.6943 0.610107 0 9.44859 0 27.7465V63.7214H8.33272V27.7465C8.33272 14.674 15.5445 8.32653 25.4951 8.32653C35.4458 8.32653 42.9079 14.9245 42.9079 27.7465V63.7214H51.2406V27.7465C51.2406 14.9245 58.5793 8.32653 68.5264 8.32653C78.4734 8.32653 85.6888 14.6776 85.6888 27.7465V63.7214H94.0215V27.7465C94.0179 9.44859 83.3236 0.610107 69.1467 0.610107Z" fill="white"/>
<path d="M136.552 65.951C117.17 65.951 105.597 54.1349 105.597 34.3445V2.32409C105.597 1.93555 105.913 1.61963 106.301 1.61963H114.609C114.997 1.61963 115.312 1.93555 115.312 2.32409V34.3445C115.312 48.4338 123.253 56.8475 136.552 56.8475C149.851 56.8475 157.792 48.4338 157.792 34.3445V2.32409C157.792 1.93555 158.108 1.61963 158.496 1.61963H166.803C167.191 1.61963 167.507 1.93555 167.507 2.32409V34.3445C167.507 54.1349 155.935 65.951 136.552 65.951ZM107.009 3.02856V34.3445C107.009 44.0582 109.744 51.6511 115.135 56.9237C120.231 61.9094 127.639 64.5421 136.556 64.5421C145.473 64.5421 152.88 61.9094 157.977 56.9237C163.368 51.6511 166.103 44.0545 166.103 34.3445V3.02856H159.203V34.3445C159.203 49.3162 150.736 58.2564 136.556 58.2564C122.375 58.2564 113.908 49.3162 113.908 34.3445V3.02856H107.009Z" fill="white"/>
<path d="M209.678 65.9509C190.158 65.9509 175.988 52.0832 175.988 32.9755C175.988 13.8678 190.158 0 209.678 0C229.199 0 243.118 13.8678 243.118 32.9755V35.7062C243.118 36.0947 242.802 36.4106 242.414 36.4106H186.026C187.444 48.6698 196.858 56.8474 209.675 56.8474C219.009 56.8474 226.278 53.0527 230.142 46.1606C230.265 45.9391 230.501 45.8011 230.755 45.8011H239.806C240.042 45.8011 240.259 45.9173 240.39 46.1134C240.521 46.3095 240.546 46.56 240.455 46.7779C235.518 58.6049 223.725 65.9546 209.671 65.9546L209.678 65.9509ZM209.678 1.40893C190.974 1.40893 177.396 14.6848 177.396 32.9755C177.396 51.2661 190.97 64.542 209.678 64.542C222.76 64.542 233.791 57.9295 238.732 47.21H231.165C226.993 54.3382 219.379 58.2563 209.678 58.2563C195.821 58.2563 185.725 49.2181 184.55 35.7679C184.531 35.5718 184.597 35.3757 184.731 35.2305C184.865 35.0852 185.054 35.0017 185.25 35.0017H241.71V32.9755C241.71 14.3907 228.538 1.40893 209.678 1.40893ZM233.737 28.9629H185.5C185.293 28.9629 185.101 28.8721 184.967 28.716C184.833 28.5599 184.774 28.3529 184.803 28.1495C186.723 15.7234 196.488 7.69101 209.678 7.69101C222.868 7.69101 232.445 15.7197 234.43 28.1459C234.462 28.3492 234.404 28.5562 234.27 28.716C234.136 28.8721 233.94 28.9629 233.733 28.9629H233.737ZM186.334 27.554H232.899C230.74 16.3152 221.711 9.10357 209.682 9.10357C197.653 9.10357 188.435 16.3152 186.334 27.554Z" fill="white"/>
<path d="M355.63 2.22949H337.901V38.2044C337.901 51.2769 330.69 57.6244 320.739 57.6244C310.788 57.6244 303.453 51.0264 303.453 38.2044V2.22949H295.121V38.2044C295.121 51.0264 287.658 57.6244 277.711 57.6244C267.764 57.6244 260.549 51.2769 260.549 38.2044V2.22949H252.216V38.2044C252.216 56.5023 262.911 65.3444 277.088 65.3444C287.035 65.3444 295.244 60.6129 299.223 51.5275C303.08 60.6129 311.285 65.3444 321.359 65.3444C335.536 65.3444 346.234 56.5059 346.234 38.2044V10.5705H355.63V2.22949Z" fill="white"/>
<path d="M12.131 104.312H4.65438V111.254H12.9907V113.339H2.16943V94.0786H12.559V96.1666H4.65438V102.253H12.1346V104.312H12.131Z" fill="white"/>
<path d="M27.4904 109.57C27.4904 110.997 27.5195 112.257 27.6029 113.342H25.3755L25.234 111.084H25.176C24.5194 112.199 23.0647 113.655 20.6088 113.655C18.4394 113.655 15.842 112.456 15.842 107.598V99.511H18.3524V107.169C18.3524 109.798 19.1505 111.57 21.4359 111.57C23.1191 111.57 24.2908 110.397 24.7479 109.286C24.8894 108.916 24.9765 108.458 24.9765 108.001V99.5146H27.4868V109.573L27.4904 109.57Z" fill="white"/>
<path d="M31.6586 103.825C31.6586 102.198 31.6296 100.796 31.5461 99.511H33.7445L33.8316 102.227H33.944C34.5716 100.372 36.0843 99.1987 37.7676 99.1987C38.0542 99.1987 38.2537 99.2278 38.4822 99.2859V101.657C38.2247 101.599 37.9671 101.57 37.6261 101.57C35.8558 101.57 34.6006 102.914 34.256 104.798C34.198 105.139 34.1435 105.543 34.1435 105.971V113.342H31.6586V103.829V103.825Z" fill="white"/>
<path d="M53.2106 106.312C53.2106 111.425 49.67 113.655 46.3326 113.655C42.5925 113.655 39.7085 110.913 39.7085 106.541C39.7085 101.911 42.734 99.1987 46.5611 99.1987C50.3883 99.1987 53.2106 102.086 53.2106 106.312ZM42.2479 106.454C42.2479 109.482 43.9891 111.77 46.445 111.77C48.901 111.77 50.6422 109.512 50.6422 106.4C50.6422 104.057 49.4705 101.083 46.5031 101.083C43.5357 101.083 42.2515 103.825 42.2515 106.454H42.2479Z" fill="white"/>
<path d="M56.381 104.025C56.381 102.253 56.323 100.826 56.2686 99.511H58.525L58.6374 101.882H58.6955C59.7221 100.197 61.3509 99.1951 63.6037 99.1951C66.9447 99.1951 69.4551 102.024 69.4551 106.225C69.4551 111.196 66.4296 113.655 63.1756 113.655C61.3473 113.655 59.7511 112.856 58.9204 111.483H58.8623V119H56.3774V104.028L56.381 104.025ZM58.866 107.71C58.866 108.081 58.924 108.426 58.9784 108.738C59.4355 110.481 60.9482 111.679 62.7475 111.679C65.403 111.679 66.9447 109.508 66.9447 106.338C66.9447 103.567 65.4901 101.196 62.8346 101.196C61.1224 101.196 59.5226 102.423 59.0365 104.312C58.9494 104.627 58.866 104.998 58.866 105.339V107.71Z" fill="white"/>
<path d="M74.0224 106.882C74.0804 110.281 76.2497 111.683 78.7601 111.683C80.5594 111.683 81.6441 111.367 82.5836 110.968L83.0117 112.769C82.1265 113.168 80.6138 113.626 78.4154 113.626C74.1638 113.626 71.6208 110.826 71.6208 106.654C71.6208 102.481 74.0768 99.1951 78.0998 99.1951C82.609 99.1951 83.8098 103.168 83.8098 105.71C83.8098 106.225 83.7517 106.625 83.7227 106.882H74.0187H74.0224ZM81.3865 105.081C81.4155 103.48 80.7299 100.996 77.9039 100.996C75.3646 100.996 74.2509 103.338 74.0514 105.081H81.3865Z" fill="white"/>
<path d="M94.5767 113.343L94.3771 111.6H94.2901C93.521 112.685 92.0337 113.658 90.0639 113.658C87.2669 113.658 85.8376 111.687 85.8376 109.686C85.8376 106.341 88.8051 104.515 94.145 104.544V104.257C94.145 103.113 93.8294 101.058 91.0034 101.058C89.7192 101.058 88.377 101.457 87.4048 102.086L86.8353 100.43C87.978 99.6854 89.6322 99.2024 91.3734 99.2024C95.5997 99.2024 96.6263 102.089 96.6263 104.86V110.031C96.6263 111.229 96.6843 112.402 96.8548 113.346H94.5694L94.5767 113.343ZM94.2066 106.283C91.4678 106.225 88.3552 106.712 88.3552 109.399C88.3552 111.029 89.4399 111.799 90.7241 111.799C92.5234 111.799 93.6625 110.655 94.0652 109.486C94.1522 109.228 94.2066 108.941 94.2066 108.687V106.287V106.283Z" fill="white"/>
<path d="M100.686 103.255C100.686 101.828 100.657 100.655 100.573 99.511H102.801L102.942 101.795H103C103.686 100.481 105.286 99.1951 107.567 99.1951C109.479 99.1951 112.45 100.339 112.45 105.081V113.339H109.94V105.368C109.94 103.139 109.113 101.283 106.744 101.283C105.09 101.283 103.802 102.456 103.374 103.854C103.261 104.17 103.203 104.598 103.203 105.027V113.342H100.693V103.255H100.686Z" fill="white"/>
<path d="M122.582 103.255C122.582 101.828 122.553 100.655 122.47 99.511H124.668L124.781 101.741H124.868C125.637 100.426 126.924 99.1987 129.206 99.1987C131.089 99.1987 132.518 100.343 133.117 101.969H133.175C133.603 101.2 134.147 100.597 134.717 100.168C135.544 99.5401 136.458 99.1987 137.771 99.1987C139.6 99.1987 142.309 100.397 142.309 105.198V113.342H139.853V105.513C139.853 102.855 138.881 101.254 136.857 101.254C135.431 101.254 134.318 102.311 133.89 103.542C133.777 103.883 133.69 104.341 133.69 104.798V113.342H131.234V105.056C131.234 102.855 130.262 101.254 128.35 101.254C126.779 101.254 125.637 102.51 125.238 103.767C125.096 104.137 125.038 104.566 125.038 104.994V113.339H122.582V103.251V103.255Z" fill="white"/>
<path d="M149.187 95.6256C149.216 96.4825 148.589 97.1688 147.587 97.1688C146.702 97.1688 146.075 96.4825 146.075 95.6256C146.075 94.7686 146.731 94.0532 147.645 94.0532C148.56 94.0532 149.187 94.7395 149.187 95.6256ZM146.39 113.342V99.511H148.901V113.342H146.39Z" fill="white"/>
<path d="M153.069 103.255C153.069 101.828 153.04 100.655 152.957 99.511H155.184L155.325 101.795H155.383C156.069 100.481 157.669 99.1951 159.951 99.1951C161.862 99.1951 164.833 100.339 164.833 105.081V113.339H162.323V105.368C162.323 103.139 161.496 101.283 159.127 101.283C157.473 101.283 156.185 102.456 155.757 103.854C155.645 104.17 155.587 104.598 155.587 105.027V113.342H153.076V103.255H153.069Z" fill="white"/>
<path d="M180.846 93.0547V109.769C180.846 110.997 180.875 112.398 180.958 113.343H178.702L178.589 110.942H178.531C177.762 112.486 176.076 113.658 173.823 113.658C170.482 113.658 167.913 110.83 167.913 106.628C167.884 102.028 170.739 99.1988 174.109 99.1988C176.221 99.1988 177.65 100.197 178.278 101.312H178.336V93.0547H180.846ZM178.336 105.143C178.336 104.827 178.307 104.399 178.223 104.086C177.853 102.485 176.482 101.171 174.599 101.171C172.002 101.171 170.46 103.455 170.46 106.512C170.46 109.312 171.831 111.625 174.541 111.625C176.224 111.625 177.766 110.51 178.223 108.626C178.31 108.284 178.336 107.939 178.336 107.54V105.14V105.143Z" fill="white"/>
<path d="M184.669 110.768C185.413 111.254 186.726 111.766 187.981 111.766C189.81 111.766 190.666 110.851 190.666 109.708C190.666 108.506 189.951 107.848 188.098 107.166C185.613 106.28 184.444 104.907 184.444 103.251C184.444 101.022 186.244 99.1951 189.211 99.1951C190.611 99.1951 191.838 99.5945 192.607 100.052L191.979 101.882C191.435 101.541 190.437 101.083 189.153 101.083C187.669 101.083 186.842 101.94 186.842 102.968C186.842 104.112 187.669 104.624 189.469 105.31C191.867 106.225 193.093 107.423 193.093 109.482C193.093 111.912 191.21 113.626 187.927 113.626C186.414 113.626 185.014 113.255 184.045 112.682L184.673 110.768H184.669Z" fill="white"/>
<path d="M197.718 106.882C197.776 110.281 199.946 111.683 202.456 111.683C204.255 111.683 205.34 111.367 206.279 110.968L206.707 112.769C205.822 113.168 204.31 113.626 202.111 113.626C197.86 113.626 195.317 110.826 195.317 106.654C195.317 102.481 197.773 99.1951 201.796 99.1951C206.305 99.1951 207.506 103.168 207.506 105.71C207.506 106.225 207.448 106.625 207.419 106.882H197.715H197.718ZM205.082 105.081C205.111 103.48 204.426 100.996 201.6 100.996C199.06 100.996 197.947 103.338 197.747 105.081H205.082Z" fill="white"/>
<path d="M213.647 95.5386V99.5112H217.246V101.425H213.647V108.883C213.647 110.597 214.133 111.571 215.53 111.571C216.187 111.571 216.673 111.483 216.985 111.4L217.097 113.285C216.611 113.484 215.842 113.626 214.87 113.626C213.698 113.626 212.758 113.255 212.156 112.569C211.442 111.825 211.184 110.597 211.184 108.971V101.428H209.044V99.5148H211.184V96.1995L213.64 95.5422L213.647 95.5386Z" fill="white"/>
<path d="M226.377 113.343V101.428H224.436V99.5147H226.377V98.8575C226.377 96.9147 226.805 95.1427 227.976 94.0279C228.92 93.1128 230.175 92.7424 231.346 92.7424C232.232 92.7424 233.001 92.9422 233.487 93.1419L233.146 95.0846C232.776 94.9139 232.261 94.7687 231.546 94.7687C229.406 94.7687 228.862 96.6533 228.862 98.7703V99.5147H232.203V101.428H228.862V113.343H226.377Z" fill="white"/>
<path d="M246.59 106.312C246.59 111.425 243.049 113.655 239.712 113.655C235.972 113.655 233.088 110.913 233.088 106.541C233.088 101.911 236.113 99.1987 239.937 99.1987C243.76 99.1987 246.586 102.086 246.586 106.312H246.59ZM235.627 106.454C235.627 109.482 237.368 111.77 239.824 111.77C242.28 111.77 244.021 109.512 244.021 106.4C244.021 104.057 242.85 101.083 239.882 101.083C236.915 101.083 235.631 103.825 235.631 106.454H235.627Z" fill="white"/>
<path d="M249.757 103.825C249.757 102.198 249.728 100.796 249.644 99.511H251.843L251.93 102.227H252.042C252.67 100.372 254.182 99.1987 255.866 99.1987C256.152 99.1987 256.352 99.2278 256.58 99.2859V101.657C256.323 101.599 256.065 101.57 255.724 101.57C253.954 101.57 252.699 102.914 252.354 104.798C252.296 105.139 252.242 105.543 252.242 105.971V113.342H249.757V103.829V103.825Z" fill="white"/>
<path d="M265.229 94.3401C266.313 94.1113 268.026 93.9407 269.767 93.9407C272.252 93.9407 273.848 94.3692 275.049 95.3423C276.046 96.0867 276.649 97.227 276.649 98.7412C276.649 100.597 275.422 102.227 273.395 102.972V103.03C275.223 103.487 277.363 105.001 277.363 107.859C277.363 109.515 276.707 110.775 275.734 111.716C274.392 112.943 272.223 113.517 269.085 113.517C267.373 113.517 266.059 113.404 265.232 113.288V94.3437L265.229 94.3401ZM267.714 102.227H269.97C272.597 102.227 274.138 100.855 274.138 98.999C274.138 96.7404 272.426 95.8543 269.912 95.8543C268.769 95.8543 268.113 95.9415 267.714 96.025V102.227ZM267.714 111.458C268.2 111.545 268.914 111.57 269.796 111.57C272.364 111.57 274.733 110.626 274.733 107.827C274.733 105.198 272.477 104.112 269.767 104.112H267.71V111.454L267.714 111.458Z" fill="white"/>
<path d="M292.179 109.57C292.179 110.997 292.208 112.257 292.291 113.342H290.064L289.922 111.084H289.864C289.208 112.199 287.753 113.655 285.297 113.655C283.128 113.655 280.53 112.456 280.53 107.598V99.511H283.041V107.169C283.041 109.798 283.839 111.57 286.124 111.57C287.807 111.57 288.979 110.397 289.436 109.286C289.578 108.916 289.665 108.458 289.665 108.001V99.5146H292.175V109.573L292.179 109.57Z" fill="white"/>
<path d="M296.002 110.768C296.746 111.254 298.059 111.766 299.314 111.766C301.143 111.766 301.999 110.851 301.999 109.708C301.999 108.506 301.284 107.848 299.43 107.166C296.945 106.28 295.777 104.907 295.777 103.251C295.777 101.022 297.577 99.1951 300.544 99.1951C301.944 99.1951 303.17 99.5945 303.939 100.052L303.312 101.882C302.768 101.541 301.77 101.083 300.486 101.083C299.002 101.083 298.175 101.94 298.175 102.968C298.175 104.112 299.002 104.624 300.802 105.31C303.199 106.225 304.426 107.423 304.426 109.482C304.426 111.912 302.543 113.626 299.26 113.626C297.747 113.626 296.347 113.255 295.378 112.682L296.006 110.768H296.002Z" fill="white"/>
<path d="M310.447 95.6256C310.477 96.4825 309.849 97.1688 308.848 97.1688C307.963 97.1688 307.335 96.4825 307.335 95.6256C307.335 94.7686 307.992 94.0532 308.906 94.0532C309.82 94.0532 310.447 94.7395 310.447 95.6256ZM307.651 113.342V99.511H310.161V113.342H307.651Z" fill="white"/>
<path d="M314.329 103.255C314.329 101.828 314.3 100.655 314.217 99.511H316.444L316.585 101.795H316.643C317.329 100.481 318.929 99.1951 321.211 99.1951C323.122 99.1951 326.093 100.339 326.093 105.081V113.339H323.583V105.368C323.583 103.139 322.756 101.283 320.387 101.283C318.733 101.283 317.445 102.456 317.017 103.854C316.905 104.17 316.847 104.598 316.847 105.027V113.342H314.336V103.255H314.329Z" fill="white"/>
<path d="M331.571 106.882C331.629 110.281 333.799 111.683 336.309 111.683C338.108 111.683 339.193 111.367 340.132 110.968L340.56 112.769C339.675 113.168 338.163 113.626 335.964 113.626C331.713 113.626 329.17 110.826 329.17 106.654C329.17 102.481 331.626 99.1951 335.649 99.1951C340.158 99.1951 341.359 103.168 341.359 105.71C341.359 106.225 341.301 106.625 341.272 106.882H331.568H331.571ZM338.935 105.081C338.964 103.48 338.279 100.996 335.453 100.996C332.913 100.996 331.8 103.338 331.6 105.081H338.935Z" fill="white"/>
<path d="M344.134 110.768C344.877 111.254 346.191 111.766 347.446 111.766C349.274 111.766 350.13 110.851 350.13 109.708C350.13 108.506 349.416 107.848 347.562 107.166C345.077 106.28 343.909 104.907 343.909 103.251C343.909 101.022 345.708 99.1951 348.676 99.1951C350.076 99.1951 351.302 99.5945 352.071 100.052L351.443 101.882C350.899 101.541 349.902 101.083 348.618 101.083C347.134 101.083 346.307 101.94 346.307 102.968C346.307 104.112 347.134 104.624 348.933 105.31C351.331 106.225 352.557 107.423 352.557 109.482C352.557 111.912 350.674 113.626 347.391 113.626C345.879 113.626 344.478 113.255 343.51 112.682L344.137 110.768H344.134Z" fill="white"/>
<path d="M355.438 110.768C356.181 111.254 357.495 111.766 358.75 111.766C360.578 111.766 361.434 110.851 361.434 109.708C361.434 108.506 360.72 107.848 358.866 107.166C356.381 106.28 355.213 104.907 355.213 103.251C355.213 101.022 357.012 99.1951 359.979 99.1951C361.38 99.1951 362.606 99.5945 363.375 100.052L362.747 101.882C362.203 101.541 361.206 101.083 359.921 101.083C358.438 101.083 357.611 101.94 357.611 102.968C357.611 104.112 358.438 104.624 360.237 105.31C362.635 106.225 363.861 107.423 363.861 109.482C363.861 111.912 361.978 113.626 358.695 113.626C357.183 113.626 355.782 113.255 354.814 112.682L355.441 110.768H355.438Z" fill="white"/>
</g>
<defs>
<clipPath id="clip0_400_515">
<rect width="365" height="119" fill="white"/>
</clipPath>
</defs>
</svg>
