<svg width="365" height="66" viewBox="0 0 365 66" fill="none" xmlns="http://www.w3.org/2000/svg">
<path d="M360.835 63.0568C358.535 63.0568 356.667 61.1903 356.667 58.8845C356.667 56.5786 358.532 54.7122 360.835 54.7122C363.139 54.7122 365.004 56.5786 365.004 58.8845C365.004 61.1903 363.139 63.0568 360.835 63.0568Z" fill="white"/>
<path d="M69.1467 0.610107C59.0727 0.610107 50.8633 5.34164 47.0108 14.427C43.0276 5.34164 34.8218 0.610107 24.8712 0.610107C10.6943 0.610107 0 9.44859 0 27.7465V63.7214H8.33272V27.7465C8.33272 14.674 15.5445 8.32653 25.4951 8.32653C35.4458 8.32653 42.9079 14.9245 42.9079 27.7465V63.7214H51.2406V27.7465C51.2406 14.9245 58.5793 8.32653 68.5264 8.32653C78.4734 8.32653 85.6888 14.6776 85.6888 27.7465V63.7214H94.0215V27.7465C94.0179 9.44859 83.3236 0.610107 69.1467 0.610107Z" fill="white"/>
<path d="M136.552 65.951C117.17 65.951 105.597 54.1349 105.597 34.3445V2.32409C105.597 1.93555 105.913 1.61963 106.301 1.61963H114.609C114.997 1.61963 115.312 1.93555 115.312 2.32409V34.3445C115.312 48.4338 123.253 56.8475 136.552 56.8475C149.851 56.8475 157.792 48.4338 157.792 34.3445V2.32409C157.792 1.93555 158.108 1.61963 158.496 1.61963H166.803C167.191 1.61963 167.507 1.93555 167.507 2.32409V34.3445C167.507 54.1349 155.935 65.951 136.552 65.951ZM107.009 3.02856V34.3445C107.009 44.0582 109.744 51.6511 115.135 56.9237C120.231 61.9094 127.639 64.5421 136.556 64.5421C145.473 64.5421 152.88 61.9094 157.977 56.9237C163.368 51.6511 166.103 44.0545 166.103 34.3445V3.02856H159.203V34.3445C159.203 49.3162 150.736 58.2564 136.556 58.2564C122.375 58.2564 113.908 49.3162 113.908 34.3445V3.02856H107.009Z" fill="white"/>
<path d="M209.678 65.9509C190.158 65.9509 175.988 52.0832 175.988 32.9755C175.988 13.8678 190.158 0 209.678 0C229.199 0 243.118 13.8678 243.118 32.9755V35.7062C243.118 36.0947 242.802 36.4106 242.414 36.4106H186.026C187.444 48.6698 196.858 56.8474 209.675 56.8474C219.009 56.8474 226.278 53.0527 230.142 46.1606C230.265 45.9391 230.501 45.8011 230.755 45.8011H239.806C240.042 45.8011 240.259 45.9173 240.39 46.1134C240.521 46.3095 240.546 46.56 240.455 46.7779C235.518 58.6049 223.725 65.9546 209.671 65.9546L209.678 65.9509ZM209.678 1.40893C190.974 1.40893 177.396 14.6848 177.396 32.9755C177.396 51.2661 190.97 64.542 209.678 64.542C222.76 64.542 233.791 57.9295 238.732 47.21H231.165C226.993 54.3382 219.379 58.2563 209.678 58.2563C195.821 58.2563 185.725 49.2181 184.55 35.7679C184.531 35.5718 184.597 35.3757 184.731 35.2305C184.865 35.0852 185.054 35.0017 185.25 35.0017H241.71V32.9755C241.71 14.3907 228.538 1.40893 209.678 1.40893ZM233.737 28.9629H185.5C185.293 28.9629 185.101 28.8721 184.967 28.716C184.833 28.5599 184.774 28.3529 184.803 28.1495C186.723 15.7234 196.488 7.69101 209.678 7.69101C222.868 7.69101 232.445 15.7197 234.43 28.1459C234.462 28.3492 234.404 28.5562 234.27 28.716C234.136 28.8721 233.94 28.9629 233.733 28.9629H233.737ZM186.334 27.554H232.899C230.74 16.3152 221.711 9.10357 209.682 9.10357C197.653 9.10357 188.435 16.3152 186.334 27.554Z" fill="white"/>
<path d="M355.63 2.22949H337.901V38.2044C337.901 51.2769 330.69 57.6244 320.739 57.6244C310.788 57.6244 303.453 51.0264 303.453 38.2044V2.22949H295.121V38.2044C295.121 51.0264 287.658 57.6244 277.711 57.6244C267.764 57.6244 260.549 51.2769 260.549 38.2044V2.22949H252.216V38.2044C252.216 56.5023 262.911 65.3444 277.088 65.3444C287.035 65.3444 295.244 60.6129 299.223 51.5275C303.08 60.6129 311.285 65.3444 321.359 65.3444C335.536 65.3444 346.234 56.5059 346.234 38.2044V10.5705H355.63V2.22949Z" fill="white"/>
</svg>
