<svg width="40" height="40" viewBox="0 0 40 40" fill="none" xmlns="http://www.w3.org/2000/svg">
<circle r="20" transform="matrix(1 0 0 -1 20 20)" fill="#1D5C58"/>
<circle r="14.5" transform="matrix(1 0 0 -1 20 20)" stroke="white"/>
<path d="M23.1823 25V23.496H18.0303C17.9823 23.496 17.9503 23.464 17.9503 23.416C17.9503 23.32 18.0143 23.272 18.1423 23.144L21.3103 20.328C22.3183 19.432 22.8943 18.44 22.8943 17.144C22.8943 15.448 21.4863 14.088 19.5023 14.088C17.7583 14.088 16.4303 15.096 15.7263 16.552L16.9903 17.256C17.4703 16.28 18.3503 15.64 19.3903 15.64C20.4463 15.64 21.2623 16.328 21.2623 17.288C21.2623 18.184 20.7983 18.776 19.9183 19.576L16.7343 22.408C16.2703 22.808 16.0463 23.256 16.0463 23.752C16.0463 24.44 16.5423 25 17.5183 25H23.1823Z" fill="white"/>
</svg>
