<svg width="40" height="40" viewBox="0 0 40 40" fill="none" xmlns="http://www.w3.org/2000/svg">
<circle r="20" transform="matrix(1 0 0 -1 20 20)" fill="#1D5C58"/>
<circle r="14.5" transform="matrix(1 0 0 -1 20 20)" stroke="white"/>
<path d="M16.4556 15.784H21.2236C21.3836 15.784 21.4796 15.864 21.4796 16.008C21.4796 16.152 21.4156 16.232 21.2716 16.344L18.9516 18.312C18.6156 18.616 18.4236 18.968 18.4236 19.336C18.4236 19.832 18.8236 20.328 19.5116 20.328H20.1996C21.3196 20.328 22.0396 20.904 22.0396 21.896C22.0396 22.968 21.0956 23.704 19.9756 23.704C18.8396 23.704 17.9916 23.16 17.5756 22.184L16.1516 22.936C16.8556 24.424 18.1996 25.208 19.9596 25.208C22.0396 25.208 23.6396 23.816 23.6396 21.896C23.6396 20.264 22.5036 19.08 21.0156 19.08H20.1516C20.1196 19.08 20.1036 19.096 20.1036 19.08C20.1036 19.016 20.1516 19 20.3116 18.888L22.5196 17C23.0156 16.552 23.2716 16.104 23.2716 15.608C23.2716 14.888 22.7116 14.28 21.6876 14.28H16.4556V15.784Z" fill="white"/>
</svg>
