<svg width="207" height="106" viewBox="0 0 207 106" fill="none" xmlns="http://www.w3.org/2000/svg">
<g clip-path="url(#clip0_92_806)">
<path d="M4.38 95.81C4.38 95.81 1.63 89.3 1 88.53L9.17 21.64C9.89 21.53 33.81 24.96 33.81 24.96C33.81 24.96 28.07 7.61003 45.43 9.27003C70.67 11.68 56.98 28.53 56.98 28.53C56.98 28.53 65.77 29.33 79.51 31.47L83.52 35.17C83.52 35.17 82.5 52.8923 70.28 54.53C67.37 54.92 63.71 60.04 63.68 61.86C63.48 74.11 77.21 72.57 79.25 72.89C80.5 75.5 78.86 79.51 78.85 81.55C78.75 102.89 4.37 95.8 4.37 95.8L4.38 95.81Z" fill="white" stroke="#1E5C58" stroke-width="2" stroke-linecap="round" stroke-linejoin="round"/>
<path d="M79.7499 76.18C77.5 94.5 76.3099 104.65 76.3099 104.65L4.37988 95.81C4.37988 95.81 12.7399 26.75 13.5099 26.75C14.2799 26.75 38.2799 29.18 38.2799 29.18C38.2799 29.18 30.8899 9.59002 50.7899 12.07C73.2599 14.88 58.8299 32.24 58.8299 32.24L83.5199 35.18L81.2099 56.74C81.2099 56.74 65.4699 49.35 63.1699 64.16C60.6599 80.34 79.7499 76.19 79.7499 76.19V76.18Z" fill="white" stroke="#1E5C58" stroke-width="2" stroke-linecap="round" stroke-linejoin="round"/>
<path d="M144.15 94.45C144.15 94.45 137.01 92.38 136.04 92.15L126.17 76.95C109.42 83.52 104.57 74.03 104.57 74.03C101.04 67.99 102.83 56.35 114.14 56.35L101.07 35.25C101.58 34.72 122.27 24.33 122.27 24.33C122.27 24.33 115.39 21.28 115.46 14.63C115.49 11.48 116.91 2.29003 128.57 1.24003C148.35 -0.529975 145.76 13.26 145.76 13.26C145.76 13.26 151.53 9.92002 163.78 4.03003L171.31 3.07003C171.31 3.07003 177.87 13.8 166.86 25C164.8 27.09 170.16 33.68 171.25 35.14C178.59 44.94 187.19 37 189 36C189 36 189.5 36 192.5 36.5C192.76 57.84 144.13 94.45 144.13 94.45H144.15Z" fill="white" stroke="#1E5C58" stroke-width="2" stroke-linecap="round" stroke-linejoin="round"/>
<path d="M192.74 36.61C192.68 37.62 205.94 58.83 205.94 58.83L144.15 94.45C144.15 94.45 139.91 87.81 130.82 73.31C130.82 73.31 125.71 79.69 118.99 79.52C111.32 79.32 106.23 74.06 106.61 67.56C107.22 57.01 120.67 58.2 120.67 58.2C115.49 49.83 107.59 36.47 107.78 36.31L130.43 24.56C130.43 24.56 126.31 22.67 123.67 18.56C120.22 13.2 121.05 4.07001 132.33 1.52001C148.3 -2.09999 149.29 14.71 149.29 14.71L171.33 3.08001L181.98 20.36C181.98 20.36 164.69 24.35 172.27 37.28C179.31 49.27 192.75 36.63 192.75 36.63L192.74 36.61Z" fill="white" stroke="#1E5C58" stroke-width="2" stroke-linecap="round" stroke-linejoin="round"/>
</g>
<defs>
<clipPath id="clip0_92_806">
<rect width="206.94" height="105.65" fill="white"/>
</clipPath>
</defs>
</svg>
