<svg width="66" height="51" viewBox="0 0 66 51" fill="none" xmlns="http://www.w3.org/2000/svg">
<path d="M30.6361 34.2477C30.6361 47.7 14.2723 56.3191 4.85866 45.9303C-2.50257 37.8041 -0.568519 26.4809 4.50342 17.7796C7.2203 13.1209 10.6345 8.9038 14.5717 5.30966C16.4925 3.55708 18.6601 1.53752 20.9593 0.336046C22.8308 -0.639507 26.0806 0.558541 25.0214 3.28667C24.7715 3.93704 24.2748 4.44364 23.7913 4.92971C21.7322 7.00746 19.6173 9.00307 17.8214 11.3273C17.0846 12.2823 16.3873 13.2681 15.8018 14.3327C15.6538 14.5997 14.348 17.8789 14.4401 17.8755C14.5914 17.872 14.7427 17.8686 14.8973 17.8686C23.5873 17.8686 30.6361 25.2007 30.6361 34.2477Z" fill="#1D5C58"/>
<path d="M65.8537 34.2477C65.8537 47.7 49.49 56.3191 40.0763 45.9303C32.7118 37.8041 34.6491 26.4809 39.721 17.7796C42.4379 13.1209 45.8521 8.9038 49.7893 5.30966C51.7102 3.55708 53.8777 1.53752 56.1769 0.336046C58.0484 -0.639507 61.2982 0.558541 60.239 3.28667C59.9891 3.93704 59.4924 4.44364 59.0089 4.92971C56.9498 7.00746 54.8349 9.00307 53.039 11.3273C52.3022 12.2823 51.6049 13.2681 51.0194 14.3327C50.8714 14.5997 49.5656 17.8789 49.6577 17.8755C49.809 17.872 49.9603 17.8686 50.1149 17.8686C58.805 17.8686 65.8537 25.2007 65.8537 34.2477Z" fill="#1D5C58"/>
</svg>
