<svg width="66" height="49" viewBox="0 0 66 49" fill="none" xmlns="http://www.w3.org/2000/svg">
<path d="M35.2174 15.6501C35.2174 2.72355 51.5812 -5.55864 60.9949 4.42407C68.3561 12.2326 66.422 23.1133 61.3501 31.4744C58.6332 35.951 55.219 40.0033 51.2819 43.457C49.361 45.141 47.1934 47.0817 44.8942 48.2362C43.0227 49.1736 39.773 48.0224 40.8321 45.4009C41.0821 44.7759 41.5787 44.2891 42.0622 43.8221C44.1213 41.8255 46.2362 39.9079 48.0321 37.6746C48.7689 36.7569 49.4662 35.8096 50.0517 34.7866C50.1997 34.5301 51.5055 31.379 51.4134 31.3823C51.2621 31.3856 51.1108 31.3889 50.9562 31.3889C42.2662 31.3889 35.2174 24.3434 35.2174 15.6501Z" fill="#1D5C58"/>
<path d="M-0.000197427 15.6501C-0.000198557 2.72355 16.3636 -5.55864 25.7772 4.42407C33.1418 12.2326 31.2044 23.1133 26.1325 31.4744C23.4156 35.951 20.0014 40.0033 16.0642 43.457C14.1434 45.141 11.9758 47.0817 9.67663 48.2362C7.80507 49.1736 4.55535 48.0224 5.61447 45.4009C5.86445 44.7759 6.36112 44.2891 6.84463 43.8221C8.90367 41.8255 11.0186 39.9079 12.8145 37.6746C13.5513 36.7569 14.2486 35.8096 14.8341 34.7866C14.9821 34.5301 16.2879 31.379 16.1958 31.3823C16.0445 31.3856 15.8932 31.3889 15.7386 31.3889C7.04855 31.3889 -0.000196667 24.3434 -0.000197427 15.6501Z" fill="#1D5C58"/>
</svg>
