<svg width="482" height="41" viewBox="0 0 482 41" fill="none" xmlns="http://www.w3.org/2000/svg">
<rect x="22.0001" y="20.0002" width="433" height="1" fill="white"/>
<circle r="14" transform="matrix(1 0 0 -1 238 20.0002)" fill="#1D5C58"/>
<circle r="14" transform="matrix(1 0 0 -1 456 20.0002)" fill="#1D5C58"/>
<circle r="20" transform="matrix(1 0 0 -1 20 20)" fill="#1D5C58"/>
<circle r="14.5" transform="matrix(1 0 0 -1 20 20)" stroke="white"/>
<path d="M21.7648 26V16.336C21.7648 15.536 21.3328 15.088 20.6608 15.088C20.2448 15.088 19.8128 15.248 19.3968 15.488L16.6448 17.008L17.3808 18.544L19.8448 17.152C19.9088 17.104 19.9728 17.056 20.0528 17.056C20.1168 17.056 20.1328 17.104 20.1328 17.168V26H21.7648Z" fill="white"/>
<circle r="20" transform="matrix(1 0 0 -1 232 21)" fill="#1D5C58"/>
<circle r="20" transform="matrix(1 0 0 -1 462 21)" fill="#1D5C58"/>
<circle r="14.5" transform="matrix(1 0 0 -1 232 21)" stroke="white"/>
<circle r="14.5" transform="matrix(1 0 0 -1 462 21)" stroke="white"/>
<path d="M235.182 26V24.496H230.03C229.982 24.496 229.95 24.464 229.95 24.416C229.95 24.32 230.014 24.272 230.142 24.144L233.31 21.328C234.318 20.432 234.894 19.44 234.894 18.144C234.894 16.448 233.486 15.088 231.502 15.088C229.758 15.088 228.43 16.096 227.726 17.552L228.99 18.256C229.47 17.28 230.35 16.64 231.39 16.64C232.446 16.64 233.262 17.328 233.262 18.288C233.262 19.184 232.798 19.776 231.918 20.576L228.734 23.408C228.27 23.808 228.046 24.256 228.046 24.752C228.046 25.44 228.542 26 229.518 26H235.182Z" fill="white"/>
<path d="M458.456 16.784H463.224C463.384 16.784 463.48 16.864 463.48 17.008C463.48 17.152 463.416 17.232 463.272 17.344L460.952 19.312C460.616 19.616 460.424 19.968 460.424 20.336C460.424 20.832 460.824 21.328 461.512 21.328H462.2C463.32 21.328 464.04 21.904 464.04 22.896C464.04 23.968 463.096 24.704 461.976 24.704C460.84 24.704 459.992 24.16 459.576 23.184L458.152 23.936C458.856 25.424 460.2 26.208 461.96 26.208C464.04 26.208 465.64 24.816 465.64 22.896C465.64 21.264 464.504 20.08 463.016 20.08H462.152C462.12 20.08 462.104 20.096 462.104 20.08C462.104 20.016 462.152 20 462.312 19.888L464.52 18C465.016 17.552 465.272 17.104 465.272 16.608C465.272 15.888 464.712 15.28 463.688 15.28H458.456V16.784Z" fill="white"/>
</svg>
